<svg width="450" height="450" viewBox="0 0 450 450" fill="none" xmlns="http://www.w3.org/2000/svg">
<g clip-path="url(#clip0_1387_705)">
<path d="M57.4125 22.1245C170.051 22.1245 282.69 22.1245 398.742 22.1245C398.815 65.4625 398.815 65.4625 398.888 109.676C398.909 118.755 398.93 127.833 398.952 137.187C398.963 148.386 398.963 148.386 398.965 153.65C398.967 157.279 398.976 160.908 398.988 164.537C399.246 240.807 383.297 312.484 328.846 369.129C328.278 369.722 327.71 370.315 327.124 370.927C304.934 393.975 278.716 410.946 250.221 425.222C246.456 427.11 242.865 429.05 239.354 431.372C234.335 434.346 230.55 436.242 224.663 434.817C216.638 432.013 209.281 427.966 201.866 423.858C199.971 422.859 198.073 421.864 196.173 420.874C154.003 398.533 118.526 366.711 93.526 326.044C92.9853 325.187 92.4447 324.33 91.8877 323.446C62.4573 275.922 56.7768 220.436 57.0586 165.877C57.0789 161.3 57.0795 156.723 57.0819 152.147C57.1001 138.863 57.1489 125.58 57.1941 112.296C57.2662 82.5395 57.3383 52.7828 57.4125 22.1245ZM227.495 45.4133C226.726 46.7343 225.957 48.0552 225.165 49.4161C223.16 52.42 222.237 53.4118 218.699 54.365C215.788 54.6284 212.942 54.7686 210.021 54.7289C210.248 55.8884 210.248 55.8884 210.48 57.0714C210.978 60.2528 211.323 63.1529 211.186 66.3733C208.346 70.0122 208.346 70.0122 205.361 72.1956C205.745 73.3484 206.13 74.5012 206.526 75.6889C207.823 76.1212 209.121 76.5535 210.458 76.9989C213.532 78.1538 214.466 78.7661 215.996 81.734C216.848 84.3629 217.581 86.9641 218.175 89.6622C219.233 89.302 220.29 88.9417 221.379 88.5706C222.628 88.1623 223.878 87.754 225.165 87.3333C225.934 87.0211 226.703 86.7089 227.495 86.3872C231.164 86.0434 233.653 87.9445 236.815 89.6622C237.583 89.6622 238.352 89.6622 239.145 89.6622C239.913 85.8196 240.682 81.9769 241.474 78.0178C244.934 76.865 248.394 75.7122 251.959 74.5245C251.214 73.4917 250.469 72.459 249.702 71.395C245.947 65.3678 245.858 61.6104 247.299 54.7289C246.526 54.7394 245.752 54.7499 244.956 54.7607C236.613 54.4807 236.613 54.4807 233.661 51.6722C232.302 49.6371 231.056 47.5281 229.825 45.4133C229.056 45.4133 228.287 45.4133 227.495 45.4133ZM292.732 74.5245C291.771 75.6292 290.81 76.734 289.82 77.8722C289.279 78.4937 288.739 79.1151 288.182 79.7554C286.679 81.4638 286.679 81.4638 286.907 83.84C282.679 83.84 278.45 83.84 274.093 83.84C274.381 85.6413 274.67 87.4425 274.967 89.2983C275.58 95.0113 275.58 95.0113 272.928 98.905C271.775 100.094 271.775 100.094 270.598 101.307C270.983 102.459 271.367 103.612 271.763 104.8C273.085 105.232 274.406 105.665 275.768 106.11C277.988 106.942 277.988 106.942 279.918 108.293C281.335 111.718 281.87 115.099 282.248 118.773C283.281 118.413 284.314 118.053 285.378 117.682C292.177 115.502 292.177 115.502 295.062 115.28C298.12 116.954 298.12 116.954 300.887 118.773C302.04 118.773 303.193 118.773 304.382 118.773C304.428 118.071 304.475 117.368 304.523 116.645C304.926 113.558 305.407 111.131 306.712 108.293C309.992 106.01 313.376 104.759 317.196 103.636C316.664 103.085 316.133 102.534 315.585 101.966C310.18 95.7516 310.18 95.7516 310.261 91.368C310.87 88.7745 311.581 86.3255 312.536 83.84C309.6 82.3725 308.046 82.7702 304.818 83.185C303.39 83.3629 303.39 83.3629 301.933 83.5443C301.204 83.6419 300.474 83.7395 299.722 83.84C299.388 83.1255 299.055 82.411 298.712 81.6749C297.149 78.724 295.162 76.7909 292.732 74.5245ZM168.697 103.959C168.086 104.596 167.475 105.234 166.845 105.892C161.916 110.385 157.078 110.596 150.608 110.622C150.605 111.382 150.602 112.141 150.599 112.924C150.231 121.249 150.231 121.249 147.769 124.432C147.12 125.014 146.471 125.597 145.803 126.197C144.698 127.205 143.593 128.214 142.454 129.253C142.524 131.668 142.524 131.668 143.619 133.911C144.58 134.728 145.541 135.544 146.531 136.386C150.606 141.069 150.479 145.344 150.608 151.378C151.452 151.381 152.296 151.384 153.166 151.387C163.51 151.8 163.51 151.8 167.719 156.108C168.608 157.237 169.497 158.366 170.413 159.529C173.327 158.234 175.193 157.079 177.475 154.798C182.562 151.445 187.733 151.587 193.712 151.378C193.715 150.548 193.718 149.718 193.721 148.862C194.024 141.347 195.018 137.134 200.378 131.751C200.869 131.311 201.36 130.871 201.866 130.418C200.737 129.529 199.608 128.641 198.444 127.725C194.025 123.412 193.959 119.132 193.721 113.179C193.716 111.913 193.716 111.913 193.712 110.622C192.868 110.619 192.024 110.616 191.154 110.613C180.815 110.2 180.815 110.2 176.82 105.892C175.859 104.763 174.898 103.634 173.907 102.471C170.474 102.09 170.474 102.09 168.697 103.959ZM228.66 119.938C227.867 121.043 227.074 122.147 226.257 123.286C222.851 127.434 219.865 128.237 214.681 129.253C215.948 133.038 215.948 133.038 218.175 136.24C218.446 138.004 218.656 139.777 218.831 141.553C218.928 142.515 219.026 143.477 219.127 144.468C219.232 145.583 219.232 145.583 219.34 146.72C220.48 146.574 220.48 146.574 221.643 146.424C227.358 145.759 232.308 145.377 237.98 146.72C238.076 145.327 238.172 143.934 238.271 142.499C238.884 137.353 240.657 134.477 243.804 130.418C243.199 130.149 242.594 129.88 241.97 129.604C236.482 127.038 232.686 124.465 228.66 119.938ZM268.268 131.582C267.884 132.519 267.499 133.456 267.103 134.421C264.773 137.404 264.773 137.404 261.957 138.05C259.006 138.325 256.086 138.508 253.124 138.569C254.349 140.37 254.349 140.37 255.599 142.208C257.631 145.728 257.869 146.315 256.983 150.504C256.226 152.09 256.226 152.09 255.454 153.707C255.069 154.859 254.685 156.012 254.289 157.2C258.133 157.584 261.978 157.969 265.938 158.364C266.275 159.301 266.611 160.238 266.958 161.203C267.957 164.341 267.957 164.341 270.598 165.351C271.427 163.658 271.427 163.658 272.273 161.931C275.544 158.023 276.033 157.832 280.791 157.346C282.441 157.266 284.091 157.207 285.742 157.2C285.142 156.191 284.541 155.183 283.922 154.143C282.015 149.668 282.109 147.836 283.413 143.227C284.167 141.663 284.939 140.108 285.742 138.569C284.942 138.552 284.142 138.536 283.317 138.519C280.143 138.351 277.193 138.115 274.093 137.404C271.763 134.421 271.763 134.421 270.598 131.582C269.829 131.582 269.06 131.582 268.268 131.582ZM72.5569 180.489C72.5569 235.52 85.5676 288.881 117.771 334.082C120.32 337.689 120.32 337.689 121.485 340.018C122.254 340.018 123.022 340.018 123.815 340.018C124.095 340.669 124.376 341.321 124.666 341.992C126.454 345.236 128.65 347.636 131.168 350.352C134.079 353.517 136.954 356.654 139.614 360.032C143.321 364.307 147.454 367.816 151.773 371.458C152.713 372.294 153.653 373.13 154.622 373.991C172.37 389.432 193.118 402.29 214.098 412.868C215.115 413.421 216.131 413.975 217.179 414.545C222.522 417.207 226.238 418.624 232.123 417.03C238.604 414.542 244.683 411.249 250.721 407.847C251.851 407.219 252.981 406.591 254.146 405.944C261.746 401.691 269.241 397.354 276.423 392.418C277.68 391.564 278.937 390.71 280.232 389.83C300.572 375.793 320.038 358.87 334.67 338.853C335.475 337.764 336.28 336.674 337.109 335.551C369.822 289.843 383.598 236.255 383.598 180.489C280.955 180.489 178.311 180.489 72.5569 180.489Z" fill="#334155"/>
<path d="M156.434 183.982C157.251 184.207 158.068 184.433 158.909 184.665C160.015 184.968 161.12 185.271 162.259 185.583C163.34 185.881 164.421 186.178 165.535 186.484C166.761 186.811 167.986 187.138 169.248 187.476C171.269 188.077 171.269 188.077 173.33 188.69C181.711 190.772 190.538 190.683 199.125 191.112C208.693 191.683 216.531 193.165 225.166 197.301C229.836 198.176 232.306 196.692 236.415 194.512C241.597 192.207 247.18 191.989 252.788 191.715C266.411 190.936 278.85 189.89 291.709 185.174C295.063 183.982 295.063 183.982 298.558 183.982C298.558 187.825 298.558 191.668 298.558 195.627C302.786 195.627 307.015 195.627 311.372 195.627C311.372 199.469 311.372 203.312 311.372 207.271C315.601 207.271 319.83 207.271 324.187 207.271C324.187 249.54 324.187 291.81 324.187 335.36C295.739 335.744 267.29 336.129 237.98 336.524C236.827 338.83 235.674 341.136 234.486 343.511C230.151 346.399 227.964 346.38 222.836 345.84C218.27 342.597 218.163 341.114 217.011 335.36C188.563 335.36 160.115 335.36 130.805 335.36C130.758 303.731 130.758 303.731 130.748 290.299C130.741 281.117 130.733 271.934 130.717 262.751C130.705 255.352 130.698 247.953 130.695 240.554C130.692 237.724 130.688 234.894 130.682 232.065C130.674 228.116 130.672 224.168 130.673 220.219C130.669 219.036 130.664 217.854 130.66 216.635C130.662 215.566 130.663 214.496 130.665 213.394C130.664 212.459 130.663 211.524 130.662 210.561C130.805 208.436 130.805 208.436 131.97 207.271C135.857 207.105 139.728 207.222 143.62 207.271C143.62 203.428 143.62 199.586 143.62 195.627C147.848 195.627 152.077 195.627 156.434 195.627C156.434 191.784 156.434 187.941 156.434 183.982ZM163.424 193.298C163.424 229.035 163.424 264.771 163.424 301.591C176.251 301.699 176.251 301.699 188.388 300.704C210.326 298.671 210.326 298.671 219.733 304.066C221.822 305.355 221.822 305.355 225.166 305.084C225.301 292.26 225.404 279.436 225.468 266.61C225.498 260.655 225.539 254.701 225.605 248.746C225.669 243 225.703 237.255 225.719 231.509C225.729 229.316 225.75 227.123 225.782 224.929C225.824 221.859 225.83 218.791 225.827 215.721C225.859 214.358 225.859 214.358 225.891 212.967C225.848 208.489 225.589 206.546 222.43 203.264C213.14 197.806 202.433 198.376 191.949 197.812C181.921 197.184 173.487 195.453 163.424 193.298ZM283.486 194.972C277.006 196.64 270.841 197.188 264.192 197.446C245.588 197.617 245.588 197.617 229.826 206.107C229.607 209.298 229.532 212.372 229.561 215.564C229.561 216.541 229.561 217.518 229.56 218.525C229.562 221.763 229.58 225.002 229.598 228.24C229.603 230.482 229.606 232.724 229.608 234.966C229.617 240.874 229.64 246.781 229.666 252.689C229.69 258.714 229.7 264.74 229.712 270.765C229.737 282.593 229.777 294.421 229.826 306.249C231.247 305.629 231.247 305.629 232.698 304.997C234.572 304.194 234.572 304.194 236.485 303.376C237.721 302.843 238.957 302.309 240.231 301.76C244.937 300.005 248.894 299.709 253.853 299.99C254.702 300.013 255.551 300.037 256.425 300.061C260.852 300.206 265.25 300.53 269.652 301.009C276.921 301.764 284.26 301.591 291.568 301.591C291.568 265.854 291.568 230.118 291.568 193.298C288.631 193.298 286.312 194.144 283.486 194.972ZM150.609 202.613C150.609 239.887 150.609 277.161 150.609 315.564C171.613 315.678 171.613 315.678 192.547 314.4C196.723 314.196 200.89 314.185 205.071 314.182C206.126 314.167 207.182 314.153 208.27 314.138C213.992 314.126 218.633 314.481 224.001 316.729C222.338 312.537 220.533 311.025 216.574 308.942C215.676 308.457 214.778 307.972 213.853 307.472C198.57 300.46 171.616 307.457 157.599 308.578C157.599 273.61 157.599 238.641 157.599 202.613C155.292 202.613 152.986 202.613 150.609 202.613ZM298.558 202.613C298.173 237.197 297.789 271.781 297.393 307.413C287.899 307.413 278.996 307.289 269.652 306.249C252.727 304.349 252.727 304.349 236.815 309.742C233.789 312.685 233.789 312.685 232.156 315.564C232.872 315.375 233.588 315.186 234.326 314.991C239.508 314.153 244.608 314.232 249.848 314.254C250.891 314.25 251.934 314.245 253.009 314.241C254.569 314.243 254.569 314.243 256.16 314.245C257.087 314.247 258.014 314.248 258.968 314.249C264.025 314.469 269.058 315.061 274.094 315.564C284.089 315.564 294.084 315.564 304.382 315.564C304.382 278.291 304.382 241.017 304.382 202.613C302.46 202.613 300.538 202.613 298.558 202.613ZM137.795 214.258C137.795 251.916 137.795 289.574 137.795 328.373C171.344 328.642 171.344 328.642 204.177 326.273C209.607 325.745 215.06 325.842 220.506 326.044C216.486 321.629 212.367 320.083 206.527 319.058C200.656 319.058 194.889 319.627 189.053 320.222C173.941 321.481 158.773 321.99 143.62 322.551C143.62 286.814 143.62 251.078 143.62 214.258C141.697 214.258 139.775 214.258 137.795 214.258ZM311.372 214.258C311.372 249.995 311.372 285.731 311.372 322.551C276.424 321.257 276.424 321.257 260.838 319.413C253.308 318.727 245.122 318.777 238.417 322.624C237.12 323.368 235.822 324.113 234.486 324.88C237.624 325.926 239.722 326.241 242.968 326.372C243.95 326.415 244.932 326.459 245.944 326.504C246.968 326.544 247.992 326.585 249.047 326.627C257.437 326.971 265.717 327.612 274.094 328.373C288.702 328.373 303.311 328.373 318.362 328.373C318.362 290.715 318.362 253.057 318.362 214.258C316.055 214.258 313.749 214.258 311.372 214.258Z" fill="#334155"/>
<path d="M170.413 203.778C172.719 204.546 175.026 205.315 177.403 206.107C177.403 208.797 177.403 211.486 177.403 214.258C178.457 214.292 178.457 214.292 179.533 214.328C205.349 215.218 205.349 215.218 217.011 217.751C217.587 219.48 217.587 219.48 218.176 221.244C212.849 220.967 207.524 220.678 202.199 220.377C200.39 220.277 198.581 220.18 196.772 220.086C194.16 219.95 191.549 219.803 188.938 219.652C188.139 219.614 187.341 219.575 186.518 219.534C181.183 219.212 176.562 218.451 171.578 216.587C170.083 212.104 170.335 208.497 170.413 203.778Z" fill="#334155"/>
<path d="M243.803 207.271C245.114 213.967 245.114 213.967 243.803 216.587C257.524 216.058 271.001 215.211 284.576 213.093C284.576 214.246 284.576 215.399 284.576 216.587C280.081 218.645 276.257 219.313 271.334 219.612C269.21 219.75 269.21 219.75 267.043 219.891C265.573 219.978 264.103 220.064 262.588 220.153C259.679 220.334 256.769 220.517 253.86 220.703C251.93 220.818 251.93 220.818 249.961 220.935C245.934 221.261 241.972 221.8 237.979 222.409C237.979 217.798 237.979 213.186 237.979 208.436C241.473 207.271 241.473 207.271 243.803 207.271Z" fill="#334155"/>
<path d="M171.577 227.067C173.014 227.248 174.451 227.43 175.932 227.617C183.923 228.507 191.947 228.632 199.98 228.834C206.062 229.037 211.325 229.3 217.01 231.724C217.01 232.877 217.01 234.03 217.01 235.218C216.139 235.036 215.268 234.855 214.371 234.667C207.181 233.652 199.935 233.636 192.683 233.451C185.036 233.196 177.858 232.33 170.412 230.56C170.797 229.407 171.181 228.254 171.577 227.067Z" fill="#334155"/>
<path d="M283.412 227.067C283.988 229.372 283.988 229.372 284.576 231.724C280.418 232.657 276.479 233.082 272.222 233.216C270.979 233.26 269.736 233.303 268.456 233.348C267.168 233.389 265.881 233.429 264.554 233.471C255.649 233.756 246.832 234.193 237.979 235.218C237.979 234.065 237.979 232.912 237.979 231.724C246.457 229.729 254.622 228.973 263.316 228.741C273.42 228.487 273.42 228.487 283.412 227.067Z" fill="#334155"/>
<path d="M171.578 242.204C176.176 242.146 180.774 242.104 185.372 242.076C187.691 242.059 190.01 242.03 192.329 242C200.855 241.957 208.743 242.372 217.011 244.533C216.627 246.07 216.242 247.607 215.846 249.191C215.217 249.024 214.588 248.857 213.939 248.684C207.28 247.042 201.202 246.611 194.367 246.789C186.666 246.898 179.231 246.701 171.578 245.698C171.578 244.545 171.578 243.392 171.578 242.204Z" fill="#334155"/>
<path d="M284.576 242.204C284.576 243.357 284.576 244.51 284.576 245.698C280.025 246.75 275.704 247.067 271.038 247.19C268.828 247.255 268.828 247.255 266.572 247.322C264.276 247.382 264.276 247.382 261.933 247.444C258.9 247.525 255.868 247.61 252.836 247.699C250.824 247.752 250.824 247.752 248.771 247.806C245.097 248.019 241.593 248.515 237.979 249.191C237.979 248.038 237.979 246.886 237.979 245.698C243.064 243.777 247.411 243.035 252.836 242.887C254.312 242.842 255.787 242.797 257.307 242.75C258.834 242.714 260.36 242.678 261.933 242.641C263.464 242.596 264.995 242.551 266.572 242.505C272.575 242.333 278.571 242.178 284.576 242.204Z" fill="#334155"/>
<path d="M171.578 256.178C176.925 256.12 182.272 256.078 187.619 256.05C189.436 256.038 191.253 256.022 193.069 256.002C195.689 255.974 198.309 255.961 200.929 255.95C201.734 255.938 202.539 255.926 203.368 255.914C208.359 255.913 212.371 256.683 217.011 258.507C217.011 259.659 217.011 260.812 217.011 262C216.045 261.815 215.08 261.631 214.085 261.441C209.689 260.786 205.363 260.574 200.929 260.467C200.086 260.443 199.243 260.419 198.374 260.394C195.703 260.318 193.033 260.249 190.363 260.181C188.543 260.13 186.722 260.079 184.902 260.028C180.461 259.904 176.02 259.786 171.578 259.671C171.578 258.518 171.578 257.366 171.578 256.178Z" fill="#334155"/>
<path d="M268.413 256.614C269.987 256.682 271.562 256.749 273.136 256.815C276.95 256.978 280.763 257.154 284.576 257.342C284.576 258.495 284.576 259.648 284.576 260.836C283.579 260.829 282.581 260.823 281.553 260.817C277.797 260.797 274.041 260.783 270.285 260.772C268.669 260.766 267.054 260.758 265.438 260.748C256.224 260.691 247.129 260.791 237.979 262C238.363 260.847 238.747 259.694 239.143 258.507C248.976 255.832 258.302 256.113 268.413 256.614Z" fill="#334155"/>
<path d="M217.01 272.48C217.01 273.633 217.01 274.786 217.01 275.973C215.854 275.784 214.699 275.594 213.508 275.398C208.887 274.741 204.311 274.66 199.65 274.695C198.387 274.698 198.387 274.698 197.099 274.7C194.441 274.707 191.782 274.721 189.124 274.736C187.309 274.742 185.494 274.747 183.679 274.752C179.257 274.765 174.835 274.785 170.412 274.809C170.797 273.656 171.181 272.503 171.577 271.316C208.229 269.288 208.229 269.288 217.01 272.48Z" fill="#334155"/>
<path d="M248.764 271.161C250.239 271.159 251.714 271.158 253.233 271.156C254.005 271.159 254.777 271.161 255.572 271.164C257.896 271.17 260.22 271.163 262.544 271.156C269.994 271.164 277.216 271.3 284.578 272.48C284.578 273.633 284.578 274.786 284.578 275.973C283.196 275.902 283.196 275.902 281.787 275.829C277.548 275.62 273.309 275.432 269.069 275.246C267.621 275.171 266.172 275.095 264.68 275.018C255.82 274.646 247.782 275.079 239.145 277.138C239.145 275.601 239.145 274.064 239.145 272.48C242.407 270.85 245.119 271.164 248.764 271.161Z" fill="#334155"/>
<path d="M217.01 286.453C217.01 287.606 217.01 288.759 217.01 289.947C214.924 289.643 212.839 289.34 210.753 289.037C201.69 288.283 192.764 289.063 183.736 289.947C182.561 290.058 181.386 290.169 180.175 290.283C177.309 290.555 174.443 290.831 171.577 291.111C171.193 290.343 170.808 289.574 170.412 288.782C170.797 288.014 171.181 287.245 171.577 286.453C173.608 285.975 173.608 285.975 176.255 285.716C177.226 285.619 178.196 285.521 179.196 285.42C180.238 285.328 181.28 285.237 182.353 285.143C183.408 285.046 184.463 284.949 185.55 284.849C207.539 282.935 207.539 282.935 217.01 286.453Z" fill="#334155"/>
<path d="M265.793 285.071C267.09 285.182 268.388 285.294 269.724 285.409C279.951 286.327 279.951 286.327 284.578 287.618C284.578 288.771 284.578 289.923 284.578 291.111C281.544 290.944 278.51 290.774 275.476 290.602C274.57 290.552 273.663 290.502 272.73 290.45C267.768 290.165 262.865 289.749 257.929 289.146C251.426 288.487 245.47 289.631 239.145 291.111C239.145 289.574 239.145 288.037 239.145 286.453C248.29 283.998 256.422 284.146 265.793 285.071Z" fill="#334155"/>
</g>
<defs>
<clipPath id="clip0_1387_705">
<rect width="450" height="450" fill="white"/>
</clipPath>
</defs>
</svg>
