<svg width="475" height="393" viewBox="0 0 475 393" fill="none" xmlns="http://www.w3.org/2000/svg">
<g filter="url(#filter0_d_1396_713)">
<path d="M278 285L297 98L129 199L278 285Z" fill="#A3231C"/>
<path d="M4 176L38 309L129 199L4 176Z" fill="#A3231C"/>
<path d="M211 5L4 176L129 199L211 5Z" fill="#EF4123"/>
<path d="M332.001 7.42847L297 98L453 227.071L332.001 7.42847Z" fill="#F37053"/>
<path d="M38 309L278 285L129 199L38 309Z" fill="#F37053"/>
<path d="M297 98L278 285L453 227.071L297 98Z" fill="#D71920"/>
<path fill-rule="evenodd" clip-rule="evenodd" d="M278 285L453 227.071L374.858 371.714L278 285Z" fill="#A3231C"/>
<path d="M297 98L211 5L129 199L297 98Z" fill="#D71920"/>
</g>
<defs>
<filter id="filter0_d_1396_713" x="0.2" y="0.2" width="474.6" height="392.314" filterUnits="userSpaceOnUse" color-interpolation-filters="sRGB">
<feFlood flood-opacity="0" result="BackgroundImageFix"/>
<feColorMatrix in="SourceAlpha" type="matrix" values="0 0 0 0 0 0 0 0 0 0 0 0 0 0 0 0 0 0 127 0" result="hardAlpha"/>
<feOffset dx="9" dy="8"/>
<feGaussianBlur stdDeviation="6.4"/>
<feComposite in2="hardAlpha" operator="out"/>
<feColorMatrix type="matrix" values="0 0 0 0 0 0 0 0 0 0 0 0 0 0 0 0 0 0 0.25 0"/>
<feBlend mode="normal" in2="BackgroundImageFix" result="effect1_dropShadow_1396_713"/>
<feBlend mode="normal" in="SourceGraphic" in2="effect1_dropShadow_1396_713" result="shape"/>
</filter>
</defs>
</svg>
