<svg width="1080" height="450" viewBox="0 0 1080 450" fill="none" xmlns="http://www.w3.org/2000/svg">
<path d="M570 170.357C538.929 170.357 530.357 155.357 530.357 136.072V103.929C530.357 82.5001 535.714 64.2857 572.143 64.2857C590.357 64.2857 598.929 70.7144 601.072 71.7859C602.143 72.8573 596.786 84.6427 595.715 83.5713C592.5 81.4285 586.072 77.143 573.215 77.143C556.072 77.143 547.5 82.5001 547.5 103.929V133.929C547.5 151.071 553.929 157.5 570 157.5C582.857 157.5 588.214 153.214 588.214 139.286V126.428C588.214 125.357 588.214 123.214 586.072 123.214H576.429C574.286 123.214 573.215 123.214 573.215 121.071V113.572C573.215 112.5 573.214 111.429 575.357 111.429H597.857C603.214 111.429 604.286 112.5 604.286 116.786V136.072C604.286 152.143 601.072 170.357 570 170.357ZM672.857 121.071C670.714 122.143 670.714 121.071 671.786 123.214L691.072 162.857C693.215 167.143 692.143 168.214 690 168.214H677.143C675 168.214 673.929 167.143 672.857 163.928L654.643 126.428C653.572 125.357 653.572 125.357 652.5 125.357H638.572C637.5 125.357 637.5 125.357 637.5 127.5V163.928C637.5 167.143 636.429 168.214 634.286 168.214H623.572C620.357 168.214 620.357 166.072 620.357 162.857V68.5714C620.357 66.4285 620.357 65.3572 623.572 65.3572H653.572C678.215 65.3572 692.143 76.0714 692.143 95.3571C692.143 110.357 681.429 120 672.857 121.071ZM652.5 78.2142H639.643C637.5 78.2142 637.5 79.2857 637.5 80.3572V109.286C637.5 111.429 638.572 111.429 640.714 111.429H657.857C667.5 111.429 675 106.071 675 94.2856C675 82.4999 665.357 78.2142 652.5 78.2142ZM739.286 170.357C725.357 170.357 700.714 165 700.714 140.357V98.5716C700.714 73.9287 712.5 63.2142 738.214 63.2142C758.572 63.2142 776.786 70.7144 776.786 97.5001V135C776.786 169.286 751.072 170.357 739.286 170.357ZM759.643 99.6427C759.643 84.6427 752.143 77.143 739.286 77.143C723.215 77.143 716.786 84.6427 716.786 99.6427V136.072C716.786 150 729.643 155.5 739.286 155.5C751.072 155.5 759.643 151 759.643 134.5V99.6427ZM822.857 170.357C806.786 170.357 787.5 162 787.5 139.286V69.6429C787.5 67.5 788.571 66.4287 789.643 66.4287H800.357C802.5 66.4287 803.572 67.5001 803.572 70.7144V133.929C803.572 147.857 811.072 156.429 822.857 156.429C838.929 156.429 842.143 147.857 842.143 133.929V69.6429C842.143 67.5 843.214 66.4287 844.286 66.4287H855C857.143 66.4287 858.215 67.5001 858.215 70.7144V137.143C859.286 166.071 837.857 170.357 822.857 170.357ZM905.357 131.786H889.286C887.143 131.786 887.143 131.786 887.143 135V165C887.143 168.214 886.072 169.286 883.929 169.286H873.215C870 169.286 870 167.143 870 163.928V69.6429C870 67.5 870 66.4287 873.215 66.4287H903.214C928.929 66.4287 941.786 77.143 941.786 98.5716C941.786 120 930 131.786 905.357 131.786ZM902.143 78.2142H889.286C887.143 78.2142 887.143 79.2857 887.143 80.3572V114.643C887.143 116.786 888.215 116.786 890.357 116.786H907.5C917.143 116.786 925.714 110.357 925.714 96.4286C924.643 83.5714 915 78.2142 902.143 78.2142ZM568.929 293.571C555 293.571 530.357 290.357 530.357 263.571V221.786C530.357 197.143 542.143 186.429 567.857 186.429C588.215 186.429 606.429 193.929 606.429 220.714V258.214C606.429 292.5 580.715 293.571 568.929 293.571ZM589.286 222.857C589.286 207.857 581.786 200.357 568.929 200.357C552.857 200.357 546.429 207.857 546.429 222.857V259.286C546.429 273.214 559.286 278.5 568.929 278.5C580.715 278.5 588.5 273 589 257.5L589.286 222.857ZM667.5 201.428H636.429C633.214 201.428 633.215 202.5 633.215 203.571V231.429C633.215 233.571 634.286 234.643 636.429 234.643H663.214C667.5 234.643 667.5 235.714 667.5 236.786L666.429 244.286C665.357 247.5 662.143 246.429 660 246.429H636.429C634.286 246.429 633.215 247.5 633.215 249.643V287.143C633.215 289.286 632.143 289.286 631.072 289.286H620.357C618.214 289.286 617.143 288.214 617.143 285V190.714C617.143 188.571 617.143 186.429 619.286 186.429H668.572C671.786 186.429 672.857 187.5 672.857 188.571V196.071C672.857 201.428 670.714 201.428 667.5 201.428ZM762.857 291.429H709.286C707.143 291.429 706.072 290.357 706.072 287.143V192.857C706.072 190.714 706.072 188.571 708.215 188.571H758.572C761.786 188.571 762.857 188.571 762.857 190.714V199.286C762.857 201.429 760.715 201.428 756.429 201.428H725.357C722.143 201.428 722.143 202.5 722.143 203.571V228.214C722.143 230.357 723.214 231.429 725.357 231.429H753.214C757.5 231.429 757.5 232.5 757.5 233.571L756.429 241.071C756.429 244.286 752.143 243.214 750 243.214H726.429C723.214 243.214 722.143 244.286 722.143 246.429V274.286C722.143 277.5 724.286 277.5 726.429 277.5H760.715C763.929 277.5 766.072 277.5 766.072 279.643V288.214C766.072 291.429 765 291.429 762.857 291.429ZM789.643 291.429H778.929C776.786 291.429 775.714 290.357 775.714 287.143V191.786C775.714 189.643 776.786 188.571 780 188.571H790.714C792.857 188.571 793.929 189.643 793.929 192.857V288.214C792.857 290.357 791.786 291.429 789.643 291.429ZM842.143 293.571C811.072 293.571 802.5 278.572 802.5 259.286V227.143C802.5 205.714 807.857 187.5 844.286 187.5C862.5 187.5 871.072 193.929 873.215 195C874.286 196.072 868.929 207.857 867.857 206.786C864.643 204.643 858.214 200.357 845.357 200.357C828.214 200.357 819.643 205.714 819.643 227.143V257.143C819.643 274.286 826 280.714 841.072 280.714C853.929 280.714 860.357 276.429 860.357 262.5V249.643C860.357 248.571 860.357 246.429 858.215 246.429H848.571C846.429 246.429 845.357 246.428 845.357 244.286V236.786C845.357 235.714 845.357 234.643 847.5 234.643H870C875.357 234.643 876.429 235.714 876.429 240V259.286C877.5 275.357 874.286 293.571 842.143 293.571ZM960 291.429H949.286C947.143 291.429 946.072 290.357 946.072 287.143V247.5C946.072 245.357 946.072 244.286 943.929 244.286H907.5C905.357 244.286 905.357 244.286 905.357 246.429V286.072C905.357 289.286 904.286 290.357 901.072 290.357H891.429C889.286 290.357 888.214 289.286 888.214 285V192.857C888.214 190.714 889.286 189.643 891.429 189.643H901.072C904.286 189.643 905.357 190.714 905.357 193.929V229.286C905.357 231.429 906.429 231.429 908.572 231.429H943.929C946.072 231.429 946.072 230.357 946.072 229.286V192.857C946.072 190.714 947.143 188.571 950.357 188.571H960C963.215 188.571 963.214 189.643 963.214 191.786V286.072C963.214 290.357 962.143 291.429 960 291.429ZM1041.43 201.428H1018.93C1015.71 201.428 1015.71 201.429 1015.71 203.571V286.072C1015.71 289.286 1015.71 290.357 1012.5 290.357H1002.86C999.643 290.357 999.643 289.286 999.643 286.072V203.571C999.643 201.429 999.643 201.428 996.429 201.428H973.929C971.786 201.428 970.715 200.357 970.715 199.286V190.714C970.715 188.571 971.786 188.571 975 188.571H1041.43C1044.64 188.571 1045.71 188.571 1045.71 190.714V199.286C1044.64 201.429 1043.57 201.428 1041.43 201.428Z" fill="#334155"/>
<path d="M580.715 395.357H576.429C575.358 395.357 575 394.5 574.287 392.143L567.858 370.714H537.858L531.429 392.143C530.358 394.286 530.358 395.357 529.286 395.357H525.001C523.929 395.357 523.929 395.357 525.001 391.071L548.572 315C549.643 312.857 549.644 311.786 551.787 311.786H554.5C556.643 311.786 556.5 313.5 557.144 315L580.715 391.071C582.222 395.357 581.786 395.357 580.715 395.357ZM553.929 321.429L540.001 367.5H566.786L553.929 321.429ZM615.001 397.5C601.072 397.5 588.215 388.929 588.215 371.786V315C588.215 312.857 588.215 311.786 589.287 311.786H593.572C594.644 311.786 594.644 312.857 594.644 316.071V369.643C594.644 383.571 603.215 392.143 615.001 392.143C631.072 392.143 635.358 383.571 635.358 369.643V315C635.358 312.857 635.358 311.786 636.429 311.786H640.715C641.786 311.786 641.786 312.857 641.786 316.071V369.643C641.786 391.071 628.929 397.5 615.001 397.5ZM675.001 397.5C663.215 397.5 655.715 394.286 652.501 393.214C651.429 392.143 653.572 386.786 654.644 387.857C657.858 388.929 661.214 392.143 673 392.143C685.857 392.143 698.572 388.929 698.572 377.143C698.572 367.5 694.286 362.143 678.215 355.714C665.358 350.357 656.786 345 656.786 331.071C656.786 322.5 663.215 311.786 683.572 311.786C696.429 311.786 699.644 313.928 701.787 313.928C703.929 315 701.786 320.357 699.644 319.286C696.429 318.214 691.072 317.143 683.572 317.143C667.501 317.143 663.215 323.571 663.215 332.143C663.215 341.786 668.572 346.071 683.572 351.428C701.786 357.857 706.072 366.429 706.072 376.071C703.929 391.071 690.001 397.5 675.001 397.5ZM760.715 318.214H741.429C739.286 318.214 739.287 318.214 739.287 320.357V392.143C739.287 395.357 739.286 396.429 738.215 396.429H735.001C733.929 396.429 733.929 396.429 733.929 392.143V320.357C733.929 318.214 733.929 318.214 731.786 318.214H712.501C711.429 318.214 710.358 318.214 710.358 317.143V313.928C710.358 312.857 710.358 312.857 712.501 312.857H762.858C765.001 312.857 765.001 312.857 765.001 313.928V318.214H760.715ZM805.715 356.786C804.643 356.786 804.644 356.786 804.644 357.857L821.786 392.143C823.929 395.357 822.858 396.429 821.786 396.429H817.501C816.429 396.429 816.429 395.357 815.358 393.214L798.215 358.929C797.887 357.857 797.144 357.857 796.072 357.857H780.001C778.929 357.857 778.929 357.857 778.929 360V393.214C778.929 396.429 778.929 396.429 777.858 396.429H773.572C772.501 396.429 772.5 396.5 772.501 392.143V316.071C772.501 313.929 772.501 312.857 774.644 312.857H793.929C813 312.857 820 318.214 820.5 334.286C820.5 346.5 813.215 354.643 805.715 356.786ZM793 317.5H779.5C777.858 317.5 777.858 318.214 777.858 319.286V349.286C777.858 351.429 777.858 352 780.001 352H797C807.714 352 815.358 346.072 815.358 334.286C815.358 321.429 805.857 317.5 793 317.5ZM891.429 395.357H887.144C886.072 395.357 886 395 885.001 392.143L878.572 370.714H848.572L842.144 392.143C841 395 841.072 395.357 840.001 395.357H835.715C834.644 395.357 834.644 395.357 835.715 391.071L859.286 315C860.358 312.857 860.358 311.786 862.501 311.786H864.643C866.786 311.786 867 312.5 867.858 315L891.429 391.071C893 395.357 892.501 395.357 891.429 395.357ZM864 321.5L850.5 366.5H877L864 321.5ZM948.215 395.357H908.572C907.501 395.357 906.429 394.286 906.429 391.071V315C906.429 312.857 906.429 311.786 908.572 311.786H911.787C913.929 311.786 913.929 312.857 913.929 316.071V387.857C913.929 390 915.001 390 916.072 390H948.215C950.358 390 950.358 390 950.358 392.143V394.286C950.358 395.357 949.926 395.357 948.215 395.357ZM964.287 395.357H960.001C958.929 395.357 958.929 395.357 958.929 392.143V313.928C958.929 311.786 958.929 311.786 961.072 311.786H963.215C965.358 311.786 965.358 311.786 965.358 315V393.214C965.358 395.357 965.358 395.357 964.287 395.357ZM1036.07 395.357H1031.79C1030.71 395.357 1030.5 395.5 1029.64 392.143L1023.22 370.714H993.215L986.787 392.143C986 395 985.715 395.357 984.644 395.357H980.358C979.287 395.357 979.287 395.357 980.358 391.071L1003.93 315C1005 312.857 1005 311.786 1007.14 311.786H1009.29C1011.43 311.786 1011.5 312 1012.5 315L1036.07 391.071C1037.65 395.357 1037.14 395.357 1036.07 395.357ZM1009.29 321.429L995.358 367.5H1022.14L1009.29 321.429Z" fill="#334155"/>
<path d="M33.2148 208.929L63.2147 336.428L151.072 230.357L33.2148 208.929ZM235.715 38.5715L35.3575 202.5L155.358 225L235.715 38.5715ZM323.572 123.214L243.215 36.4285L163.929 220.714L323.572 123.214ZM303.215 309.643L321.429 130.714L162.857 228.214L303.215 309.643ZM327.858 131.786L309.643 310.714L475.715 256.071L327.858 131.786ZM480 261.428L309.643 317.143L308.572 318.214L402.858 400.714L480 261.428ZM68.5719 339.643L301.072 316.071L157.5 232.5L68.5719 339.643ZM360.001 36.4285L326.786 122.143L477.858 249.643L360.001 36.4285Z" fill="#334155"/>
</svg>
