<svg width="590" height="480" viewBox="0 0 590 480" fill="none" xmlns="http://www.w3.org/2000/svg">
<g filter="url(#filter0_d_1396_715)">
<path fill-rule="evenodd" clip-rule="evenodd" d="M11 375.699L13.186 375.905C15.9223 376.165 18.6576 376.436 21.3926 376.71C22.5652 376.826 23.7381 376.939 24.9112 377.05C36.223 378.117 50.6357 380.452 60.3061 386.898C57.0006 397.631 49 429 51.5 440C54 451 80.5 457 97.936 458C105.791 458.833 127.2 458.3 150 449.5C172.8 440.7 200.5 420.5 209.5 415.5C239.106 422.304 277.351 448.418 280.834 451.585C283.822 454.301 285.816 453.622 286.44 452.943C306.889 435.556 339.533 420.873 357.5 414.066C370.667 423.877 402.7 445 425.5 451C448.3 457 469.667 457.167 477.5 456.5C486.781 455.833 509.5 452 516.5 439C516.811 437.639 516.92 435.376 516.172 431.209L508.961 391C515.974 386.333 534 378.349 568.5 382L528.5 328C516.835 328.833 492.5 330.016 474.5 339.702C470.164 342.035 461.983 347 460 354.5C458.938 358.518 457.62 371.231 458 377.5C459 394 460.818 398.925 460.479 404.54C443.033 404.625 421.628 393.174 409.768 385.364C415.503 380.405 429.236 372.175 450.97 339.702C477.825 299.577 468.353 237.144 459.8 172.099C453.112 121.244 457.226 117.744 478.02 95.2514C478.896 94.304 479.076 92.8908 478.454 91.7607L473.696 83.1253C474.216 82.5406 475.854 80.7383 476.44 80.069C480.243 75.7222 481.647 68.4185 481.873 65.3099C488.8 59.3331 491.551 48.6492 492.061 44.0543C496.249 37.9953 504.083 24.9344 501.909 21.1627C499.975 17.8065 465.128 30.3695 442.258 39.2637L418.71 7.05694C417.568 5.49552 414.914 4.98223 413.152 5.7805C409.858 7.27307 403.867 9.75991 393.918 13.8482C369.128 24.036 331.934 12.9426 311.201 8.75431C293.738 5.22665 261.477 4.92645 230.628 13.169C186.901 24.8522 171.512 13.5851 157.005 7.52416C155.808 7.02404 154.436 7.3989 153.62 8.40749L126.998 41.3144C123.417 40.2291 118.665 38.7286 113.414 37.2802C107.318 35.5986 111.458 44.9945 116.234 53.2411L88.7691 89.4705C87.6346 90.967 88.1442 93.1317 89.6607 94.2395C98.2524 100.516 103.877 113.09 105.603 116.745C110.094 126.254 114.065 140.749 105.603 184.168C97.1419 227.587 96.975 261 98.4719 272.279C99.1511 282.354 102.672 307.769 111.323 328.835C119.974 349.9 145.911 375.524 157.798 385.703C147.697 392.479 129.044 401.985 108.32 403.86V366.686C108.548 360.291 110.5 350.5 100.502 343.5C92.6219 337.983 69.5 330.55 42.5 328C41.3333 327.706 41.1 328.671 39.5 330.404C37.9 332.136 16.5 360.799 5.5 375.699H11ZM139.882 33.9622C144.429 28.1634 151.031 20.8581 155.5 15C155.847 14.5452 157 15 157 15C183.345 28.4007 201.359 26.0003 225.326 21.2901C248.233 15.7292 284.713 14.3709 284.713 14.3709C291.439 14.361 297.842 14.9907 304.553 15.5042L307.126 15.7292C315.515 16.4483 323.739 17.8035 332.02 19.3126C354.363 23.3947 367.77 28.4507 396.778 21.1627L398.326 20.5098C399.284 20.1056 400.242 19.7016 401.2 19.2976L403.019 18.5309L403.928 18.147L403.932 18.1454L403.933 18.1449C406.671 16.9883 409.409 15.832 412.17 14.7309C412.713 14.5146 413.332 14.6723 413.706 15.1207C416.64 18.6385 419.489 22.2034 422.228 25.8773C425.525 30.3151 428.874 34.6715 432.404 38.9277C433.547 40.1776 433.716 40.3621 434.402 42.36L422.755 46.2824C418.687 40.8178 414.522 35.4382 410.3 30.093C409.933 29.6284 409.307 29.456 408.753 29.6652C406.49 30.5201 404.226 31.3586 401.936 32.1438L399.835 32.8363C392.821 35.1477 385.671 36.1095 378.326 36.1712L375.978 36.1898C363.823 36.3827 351.923 35.036 339.989 32.798C304.953 26.1401 271.025 24.8948 235.805 31.3706C214.43 35.3106 194.292 37.887 172.647 34.0673L158.384 29.313L146.842 44.7022L146.158 45.6135C141.844 46.7187 140.911 45.4635 133 43C135.138 39.9609 137.594 36.8898 139.882 33.9622ZM444.154 45.0723C453.053 42.0003 461.982 39.0248 470.915 36.0538L471.325 35.9174C472.517 35.5208 473.71 35.1242 474.902 34.7274C479.978 33.0381 488.141 28.298 493.223 29.9922L489.827 36.7841C475.681 46.8592 475.681 46.8592 458.724 51.6554C444.362 55.8005 430.666 60.643 417.258 67.2865L414.437 68.7059L403.57 65.3099C380.358 61.9939 358.865 68.9744 339.048 80.9312L332.256 86.3647L326.822 85.6856L327.501 87.0439L329.539 93.8358C332.857 91.4488 332.857 91.4488 337.01 91.7982L338.368 93.1566V97.2317L337.01 99.9485C338.949 99.2685 338.949 99.2685 340.584 98.9058L342.231 98.5477C345.127 97.9149 344.849 97.7555 347.877 99.2693L348.556 101.307L345.839 108.099C351.872 107.593 351.872 107.593 353.99 108.778L354.669 112.174L351.952 114.211C353.961 116.014 354.522 116.518 355.16 117.755C355.61 118.626 354.927 119.641 353.948 119.592C343.5 119.063 333.121 114.678 323.638 110.479L321.389 109.457L313.238 108.099C315.261 105.402 315.276 105.382 319.26 98.0781C319.319 97.9698 319.366 97.8452 319.394 97.7251C322.156 85.7914 322.195 85.6677 326.061 77.7033C326.114 77.5944 326.184 77.4878 326.264 77.397C339.661 62.2052 358.228 60.6114 377.082 59.0117C396.681 57.3625 415.062 55.1903 433.699 48.7007C436.549 47.7013 439.402 46.7111 442.258 45.7261L444.154 45.0723ZM151.931 68.4087C139.783 63.7647 127.148 58.6205 120.263 47.2422C119.691 46.2975 120.503 45.1743 121.59 45.3684C122.809 45.586 124.022 45.8244 125.236 46.0924C126.473 46.3844 127.71 46.6763 128.948 46.9659L130.358 47.2951C153.098 52.613 175.9 58.0666 199.255 59.5606L201.31 59.6907L201.801 59.7219L201.816 59.7229C205.143 59.9345 208.469 60.1462 211.797 60.3281C219.715 60.7533 227.218 61.4644 234.95 63.2306C235.071 63.2581 235.189 63.3036 235.298 63.3631C252.647 69.3851 252.647 84.4837 252.647 84.4837C252.647 84.4837 252.137 98.5901 259.133 105.548C261.248 107.651 264.068 109.14 264.635 110.845C264.875 111.565 264.41 112.324 263.674 112.511C259.533 113.56 259.033 113.837 253.471 116.928L253.47 116.928L248.716 121.682L240.565 125.758L234.453 130.512C230.049 131.708 230.049 131.708 222.227 127.795V125.758L226.302 121.682C224.026 120.408 224.026 120.408 222.906 117.607L227.661 115.57L233.773 114.891C230.838 111.755 230.838 111.755 230.378 108.099L231.736 106.74L239.886 106.061C238.207 102.823 238.207 102.823 239.207 99.9485L240.565 99.2693H248.036V95.1942L250.074 91.7982L247.357 92.4774L243.961 95.1942C239.207 95.8734 239.207 95.8734 236.49 97.2317L234.453 101.986L227.568 104.281L226.302 104.703C222.227 102.665 222.227 102.665 207.964 97.9109L193.701 95.8734C190.419 90.1164 190.143 89.6319 188.699 83.9853C188.479 83.1273 189.127 82.2896 190.012 82.3198C203.34 82.7739 218.407 88.2699 230.628 92.7441L231.736 93.1566C225.807 85.2508 225.807 85.2508 192.555 78.9361C179.435 76.4456 166.342 73.8121 153.794 69.1325L151.931 68.4087ZM458.108 55.8983C465.772 53.7573 473.255 51.3759 480.697 48.5508C482.119 47.9015 482.638 47.6646 483.376 47.6098C484.244 47.5453 484.847 48.4499 484.572 49.2757C482.384 55.8399 479.251 58.7978 473.665 63.8272C473.574 63.9089 473.471 63.9792 473.362 64.0336C456.756 72.299 438.005 75.9562 419.871 71.4226V70.0642C421.503 69.2871 423.145 68.537 424.795 67.7985C425.644 67.4229 426.493 67.0461 427.342 66.6683C437.335 62.0827 447.54 58.8622 458.108 55.8983ZM108.648 74.5586C112.389 69.5179 116.266 64.6457 120.349 59.8764L121.052 60.7146C121.333 60.983 121.61 61.2495 121.723 61.516L122.641 63.6969C123.721 66.2539 124.699 68.8084 125.567 71.438C125.704 71.8541 125.628 72.3107 125.366 72.6618C124.494 73.8289 123.612 74.985 122.703 76.1245L121.615 77.461L120.427 78.9202L119.203 80.4219C118.034 81.8585 116.864 83.2951 115.694 84.7311C114.593 86.0821 115.175 85.4351 112.702 88.7475C112.395 89.1599 112.345 89.7115 112.569 90.1746C112.997 91.0576 113.243 91.62 113.6 92.3501C132.234 130.512 131.054 139.341 123.788 184.889C121.762 197.586 119.829 210.263 118.555 223.059L118.312 225.598C117.276 236.244 116.85 246.866 116.764 257.558L116.741 261.595C116.502 284.747 120.786 307.052 131.87 327.55L132.575 328.835C138.024 338.806 144.603 348.334 152.64 356.371L154.309 358.04C159.731 363.514 167.438 370.744 173.5 375.5L162.393 382.362C162.005 382.444 161.598 382.351 161.285 382.107C154.344 376.698 148.005 370.611 142.211 363.983C141.493 363.13 140.771 362.281 140.046 361.436C131.287 352.327 123.538 341.323 118 330C112.462 318.677 106.352 297.391 104.741 280.523L104.558 278.447C101.857 247.758 106.427 216.189 111.223 185.951L111.323 185.318L111.323 185.316C113.21 173.442 115.09 161.608 116.035 149.614C117.466 127.554 111.369 109.074 96.6854 92.0292L95.8984 91.1191L96.2468 90.674L96.2482 90.6722L96.249 90.6712C100.427 85.3343 104.604 79.9985 108.648 74.5586ZM269.77 62.5932L271.808 60.5556C275.571 59.6148 278.315 58.808 281.395 59.8861C282.493 60.2704 282.293 61.7206 281.177 62.0481C277.77 63.0478 274.402 64.1514 271.086 65.4373L269.77 65.9891V62.5932ZM133.424 75.6251C129.88 71.0593 127.602 66.0121 125.783 60.5556C125.625 60.0831 126.217 60.4032 126.462 60.5556C141.65 70.0191 158.729 75.0997 175.976 79.4031C180.74 80.5916 183.513 81.95 184.872 85.0064C187.976 92.4571 188.702 92.75 187.865 95.6568C187.709 96.1982 187.22 96.5735 186.656 96.5915C180.516 96.7878 171.613 95.9683 170.687 95.8808C170.63 95.8755 170.583 95.8676 170.528 95.8546C168.937 95.4837 144.329 89.5792 134.665 77.2249L133.424 75.6251ZM272.487 69.3851V68.0267C281.671 63.4347 290.364 61.6692 300.05 65.2048C300.236 65.2728 300.408 65.3851 300.546 65.5267C303.369 68.4059 303.462 68.5992 303.094 72.3447C303.066 72.6276 302.953 72.8986 302.759 73.107C302.156 73.7577 301.873 73.8007 299.655 74.1394L294.9 72.1018L272.487 69.3851ZM338.368 88.4023V86.3647C356.375 74.3606 381.798 62.9451 403.796 69.3665L406.16 70.1067C407.561 70.5437 408.962 70.9819 410.362 71.4226V72.781C389.284 78.2647 368.727 85.0634 348.555 93.2793C346.802 94.0567 346.802 94.0567 343.123 94.515L341.764 91.1191L338.368 88.4023ZM434.813 77.5353C448.055 76.3237 460.737 74.4261 472.882 68.674C473.23 68.4713 473.483 68.3237 473.696 68.218C474.533 67.8026 475.18 68.9246 474.781 69.7694C471.874 75.93 468.467 79.7832 462.855 84.175C462.727 84.2752 462.583 84.3511 462.428 84.3996C451.326 87.8729 434.97 93.2352 423.946 87.7231L430.738 83.648L434.813 77.5353ZM303.73 78.2145C304.557 75.4674 304.557 75.4674 307.805 70.7434H309.163L310.522 73.4602L313.238 74.8186L313.918 77.5353L311.201 80.9312H306.447L303.73 78.2145ZM270.45 73.4602V72.1018C279.28 73.0722 288.059 73.9624 296.692 76.1151C296.854 76.1557 297.011 76.2284 297.148 76.3255C300.596 78.7709 300.727 78.9197 302.874 83.2892C302.989 83.5222 303.035 83.7864 303.005 84.0443C302.66 87.0522 302.521 87.4673 300.019 89.5723C299.446 90.0541 298.589 89.9739 298.108 89.4005C295.605 86.4186 295.276 86.2442 292.379 85.0845C292.251 85.0333 292.114 85.001 291.976 84.9906C288.387 84.7202 284.751 84.5861 281.245 83.7926C280.858 83.7051 280.537 83.4427 280.356 83.0895C279.811 82.0214 279.421 81.4001 276.562 76.8561L270.45 73.4602ZM267.054 81.6104C267.368 78.247 267.411 77.7806 268.486 76.3049C268.839 75.8214 269.476 75.6375 270.036 75.8493C272.044 76.6093 272.313 76.8572 274.525 78.8937L279.279 86.3647L284.033 87.0439L286.071 88.4023C288.097 87.8771 290.13 87.4433 292.184 87.0439C292.184 87.0439 292.72 88.5588 292.184 90.4399C291.022 91.9548 290.363 91.805 289.467 92.4774L295.58 91.1191C295.58 91.1191 296.166 91.7948 296.455 92.2944C296.938 93.1288 296.938 93.8358 296.938 93.8358C296.938 93.8358 296.341 102.505 298.153 105.539C298.299 105.783 299.797 107.481 300.059 107.593C303.481 109.066 303.538 109.127 305.088 110.815L301.013 113.532C293.761 120.125 288.158 124.209 278.834 127.045C278.68 127.092 278.515 127.111 278.355 127.101C274.814 126.878 274.669 126.835 273.307 125.244C273.214 125.134 273.137 125.008 273.083 124.875C271.509 121.037 271.45 120.779 272.346 116.274C272.434 115.835 272.736 115.463 273.147 115.287C277.246 113.527 277.34 113.433 279.279 111.495L280.637 104.024L284.713 97.9109C278.743 102.861 278.468 103.09 272.686 103.312C272.154 103.332 271.653 103.038 271.422 102.558C270.461 100.564 270.469 100.22 269.77 98.5901C269.299 97.4892 269.308 95.7663 269.147 94.285C269.115 93.9928 268.958 93.7365 268.666 93.7015C268.097 93.6334 267.136 93.6958 266.535 93.6385C266.197 93.6062 266.025 93.3059 266.015 92.9658C265.936 90.2034 266.339 90.1696 268.307 85.2694C268.375 85.0986 268.474 84.9152 268.653 84.8729C268.985 84.7943 269.416 85.0064 269.77 85.0064L270.45 86.3647L272.487 85.6856V83.648H269.091C268.412 83.3083 267.053 82.2896 267.054 81.6104ZM352.292 101.095C352.122 99.6283 352 98.233 351.964 96.7822C351.95 96.2324 352.279 95.7385 352.787 95.528C375.936 85.9393 405.213 72.5661 430.059 77.5353V78.8937L427.342 81.6104L417.833 86.3647C400.24 95.575 400.239 95.5752 380.513 100.089L378.525 100.585C371.404 102.376 359.429 107.423 352.631 104.024L352.483 102.758L352.292 101.095ZM309.842 84.3272L312.559 82.9688L313.238 85.6856C311.698 87.486 311.634 87.5613 307.668 87.7039C307.322 87.7163 306.975 87.6016 306.725 87.361C306.145 86.8025 306.092 86.4574 305.767 84.3272H309.842ZM468.353 89.1186L469.452 87.7231C470.851 88.9949 471.005 89.1356 471.827 91.0121C472.037 91.4909 471.949 92.0498 471.608 92.4459C460.604 105.226 452.537 118.438 452.406 136.171L452.387 138.832C452.216 151.229 453.762 163.258 455.71 175.485C462.562 218.5 464.145 262.402 464.145 262.402C464.145 262.402 465.441 276.075 461.5 302C457.559 327.925 443.341 350.333 418.385 372.175C416.47 373.769 411.721 378.033 411.721 378.033C411.721 378.033 406.5 383 404.5 382C404.5 382 398.002 378.429 395.812 376.15C395.242 375.556 395.338 374.594 396.003 374.108C402.412 369.429 408.283 364.321 413.827 358.607C439.937 331.159 454.378 311.5 451.838 258.636C449.298 205.772 447.99 206.908 444.158 182.069C440.93 161.189 437.913 141.242 441.505 120.218C441.568 119.853 441.78 119.529 442.087 119.32C445.654 116.898 448.586 114.409 451.793 111.495L456.547 101.986C460.795 97.8577 464.655 93.7386 468.353 89.1186ZM417.154 91.7982C428.713 93.4004 439.555 93.4004 451.113 91.7982C453.997 90.9743 456.875 89.8371 459.822 89.336C460.949 89.1443 461.583 90.4092 460.859 91.2942C455.559 97.7696 454.7 98.2703 445.815 103.268C445.728 103.318 445.63 103.359 445.534 103.388C436.505 106.077 431.219 105.803 422.708 102.039C422.629 102.004 422.549 101.959 422.478 101.91C416.722 97.8957 416.72 97.862 416.475 92.4774L417.154 91.7982ZM174.584 109.44C165.114 107.834 157.019 102.522 150.913 95.1942H152.271C158.578 97.2894 164.762 98.7286 171.288 99.9485L191.664 100.628L193.701 104.024L197.097 107.42V108.778L197.095 108.778C185.963 109.643 185.928 109.646 174.788 109.459C174.721 109.458 174.651 109.452 174.584 109.44ZM360.102 108.778C376.373 105.281 392.789 101.409 408.5 95.8707C410.022 95.2194 410.292 95.1034 411.478 95.1471C412.034 95.1676 412.514 95.5437 412.694 96.0705C413.795 99.3018 414.231 99.6893 419.871 104.703L428.021 108.778C425.254 112.12 425.023 112.4 422.099 112.752C421.571 112.816 421.053 112.558 420.778 112.102C419.295 109.645 419.058 109.424 417.536 108.906C417.287 108.821 417.019 108.813 416.765 108.878C414.868 109.359 412.964 109.763 411.041 110.136L409.683 106.061H406.287L403.57 107.42C398.474 109.118 395.59 110.708 391.376 113.511C391.303 113.561 391.22 113.604 391.138 113.638C386.725 115.462 386.678 115.466 381.672 115.856C380.623 115.987 379.574 116.118 378.525 116.249C373.286 116.92 368.063 117.692 362.771 117.692C359.937 117.907 359.937 117.907 358.065 115.57L358.744 109.457L360.102 108.778ZM216.794 112.174C208.09 109.853 203.801 108.446 198.401 102.821C197.597 101.984 198.211 100.646 199.37 100.714C208.794 101.266 216.922 104.427 225.623 108.778L226.302 112.174H216.794ZM432.775 109.457L441.605 108.778C444.499 107.726 447.355 106.061 450.434 106.061V107.42C447.201 111.73 443.933 113.713 439.176 116.105C438.987 116.199 438.778 116.249 438.568 116.25C435.571 116.272 432.476 116.58 429.542 116.103C428.529 115.938 428.236 114.71 428.936 113.96C429.718 113.123 430.464 112.257 431.205 111.367L432.775 109.457ZM396.778 113.532L401.533 112.174C405.571 109.345 405.571 109.345 407.645 109.457V111.495L403.57 115.57C407.002 114.896 410.429 114.207 413.843 113.447L416.475 112.853V116.928C410.601 122.544 410.563 122.58 402.37 125.031C402.267 125.062 402.158 125.081 402.052 125.087C397.057 125.356 391.957 125.244 387.119 126.506L385.223 127L381.051 128.089L378.881 128.655L374.365 129.833L372.092 130.426L367.68 131.577L365.578 132.125L361.612 133.16C353.513 134.222 353.475 134.227 345.277 133.912C345.201 133.909 345.123 133.9 345.048 133.884C340.546 132.946 336.041 132.158 331.494 131.464L329.114 131.106C324.031 130.333 318.868 128.02 312.756 129.31C311.147 129.65 311.993 133.033 311.737 135.083C311.397 137.8 311.008 140.144 308.68 143.573C308.031 144.529 306.98 143.012 306.891 141.859C306.415 135.641 306.084 129.418 305.775 123.187C305.77 123.09 305.776 122.991 305.792 122.895C306.638 117.89 307.672 115.623 311.529 112.458C311.756 112.272 312.039 112.168 312.331 112.158C316.384 112.021 316.554 112.046 319.894 112.821C319.983 112.842 320.072 112.872 320.155 112.91C326.589 115.85 333.047 118.149 339.832 120.137C340.855 120.437 341.877 120.738 342.898 121.042C345.805 121.909 348.713 122.77 351.623 123.624C351.839 123.687 352.067 123.696 352.287 123.649C356.371 122.791 360.456 122.073 364.588 121.483L366.687 121.189C368.95 120.868 371.212 120.546 373.475 120.228C375.043 120.007 376.611 119.786 378.178 119.564C381.811 119.049 385.444 118.534 389.077 118.022L392.024 117.607L396.778 113.532ZM180.118 113.532C184.123 113.62 188.022 113.27 192.003 112.853C195.896 112.446 199.709 112.102 203.62 112.169C203.798 112.172 203.973 112.211 204.136 112.281C206.528 113.305 208.92 113.994 211.447 114.617L212.931 114.976C213.919 115.218 214.907 115.46 215.894 115.702L218.152 116.249L218.323 116.842L218.323 116.843C218.979 119.127 219.635 121.408 220.19 123.72L218.152 125.758C211.737 122.9 205.313 120.188 198.74 117.714C198.553 117.644 198.345 117.616 198.146 117.633C184.15 118.771 184.102 118.743 177.401 114.891L180.118 113.532ZM235.132 134.587L237.169 132.549L237.8 132.173C242.793 129.189 247.785 126.206 252.702 123.097C252.761 123.06 252.818 123.017 252.871 122.971C258.008 118.476 261.411 115.57 268.412 115.57V119.645C255.293 137.608 255.243 137.676 234.017 148.052C233.86 148.128 233.68 148.177 233.507 148.19C227.8 148.598 227.676 148.5 219.511 142.058C212.162 135.378 212.042 135.268 204.284 130.742C204.032 130.595 203.732 130.53 203.442 130.562C199.292 131.028 195.14 131.463 190.985 131.87L190.305 130.512C191.814 129.73 193.316 129.033 194.89 128.389L196.418 127.795L195.739 124.399L191.664 123.041H182.834L182.155 121.682C187.731 119.824 193.194 119.549 198.969 120.962C199.079 120.989 199.186 121.031 199.285 121.084C205.356 124.347 211.587 126.808 218.056 129.158C219.154 129.557 220.252 129.957 221.348 130.359C225.942 132.048 230.287 133.78 235.132 134.587ZM293.636 127.687C296.98 123.856 300.346 120.046 303.73 116.249H304.409C303.231 121.55 302.679 126.012 303.202 131.387C304.292 140.079 304.41 147.619 300.74 155.48C300.503 155.99 299.964 156.285 299.404 156.233C294.875 155.816 290.394 155.589 285.838 155.561L283.864 155.557C280.233 155.539 276.661 155.587 273.05 155.987L270.45 156.321L272.487 151.567C267.24 151.962 267.108 151.972 263.282 149.709C263.084 149.592 262.917 149.424 262.8 149.225C261.311 146.68 261.279 146.458 261.591 142.427C261.61 142.186 261.693 141.954 261.831 141.755C264.478 137.925 266.824 134.004 269.022 129.894L269.77 128.474L275.883 130.512C280.335 130.32 280.335 130.32 283.354 131.191L272.487 135.266C281.492 135.266 286.106 133.356 293.426 127.882C293.502 127.825 293.573 127.759 293.636 127.687ZM417.833 121.682L420.55 118.287H422.588L425.984 119.645L436.851 121.003V121.682C433.731 125.811 433.669 125.893 429.629 128.324C429.466 128.422 429.281 128.487 429.093 128.509C422.747 129.259 417.711 128.383 412.4 124.399L417.833 121.682ZM161.78 123.72L162.459 122.362C167.734 119.724 170.416 117.972 175.363 121.682L171.967 125.078C167.048 125.271 167.048 125.271 161.78 123.72ZM174.005 126.437L176.722 123.72L178.759 125.758C179.164 131.14 179.164 131.141 176.722 135.266L174.684 135.945C173.805 132.128 173.805 132.128 174.005 126.437ZM153.629 134.587L154.309 132.549C159.856 128.035 159.856 128.035 165.176 128.474L165.855 129.154L165.176 131.87C161.444 135.436 161.444 135.436 153.629 134.587ZM393.383 128.474L404.25 127.795C406.251 127.009 406.251 127.009 408.325 127.116L414.437 130.512L423.946 132.549L421.229 134.587L421.056 134.63C413.983 136.399 409.199 137.595 402.212 135.266C394.931 132.217 394.931 132.217 393.383 128.474ZM388.485 139.985C384.144 138.884 381.028 137.38 377.906 134.641C377.172 133.997 377.413 132.825 378.32 132.465C383.699 130.335 384.074 130.35 387.949 130.512L394.062 135.266C397.983 136.509 399.435 136.969 400.453 137.664C401.331 138.264 400.864 139.604 399.815 139.783C396.966 140.268 395.626 140.232 388.778 140.025C388.681 140.022 388.58 140.009 388.485 139.985ZM165.855 135.266L168.571 131.191L171.288 133.908C171.288 139.298 171.698 139.717 169.994 142.162C169.39 143.028 168.061 142.852 167.669 141.872C166.501 138.954 166.404 138.404 165.855 135.266ZM306.073 155.207C308.298 152.038 308.68 150.365 312.076 144.252C315.472 138.14 314.394 132.706 315.812 132.706C317.229 132.706 326.228 133.841 331.407 134.842C335.051 135.573 338.695 136.237 342.367 136.816L344.141 137.092C346.012 137.383 347.883 137.672 349.755 137.958C349.861 137.975 349.969 137.978 350.076 137.969C354.361 137.604 358.607 137.276 362.9 137.289C363.618 137.292 364.201 137.866 364.23 138.583C364.444 143.958 364.34 144.317 362.819 149.529L358.744 148.85L350.594 145.454C353.431 152.629 353.619 153.105 353.37 158.49C353.337 159.186 352.781 159.746 352.085 159.781C348.555 159.953 348.201 159.815 344.481 158.359L336.331 154.283C338.588 161.912 338.588 161.912 338.368 167.867L332.256 167.188L322.068 163.113C324.137 173.314 324.137 173.314 321.389 180.093H320.03C316.028 173.613 311.943 167.204 307.693 160.884C306.281 159.034 306.201 158.93 305.836 156.168C305.792 155.83 305.877 155.485 306.073 155.207ZM190.305 142.737L193.022 137.983C196.675 135.446 197.177 135.097 199.322 135.193C199.995 135.223 200.541 135.764 200.576 136.436C200.671 138.253 200.405 138.693 198.671 141.082C198.53 141.276 198.336 141.432 198.117 141.529C192.478 144.017 192.437 143.993 190.305 142.737ZM375.724 142.737C372.217 141.335 370.036 140.113 368.24 137.157C367.845 136.508 368.133 135.673 368.822 135.353C370.732 134.464 371.04 134.481 373.007 134.587L375.724 137.304L383.874 141.379L383.195 142.737H375.724ZM202.531 143.416C202.126 138.54 202.126 138.54 203.21 136.625L206.606 137.983C209.2 142.412 209.2 142.412 208.644 149.529H207.964L202.531 143.416ZM236.49 153.604V150.888C242.103 147.427 252.465 137.983 258.903 137.983L257.545 141.379C257.545 147.374 257.033 147.941 260.262 152.246L265.695 155.642C263.952 164.629 263.952 164.629 260.262 173.301L258.224 172.622L256.187 167.188V159.717H254.828V161.075C251.486 164.108 251.486 164.108 246.678 165.15V158.359L248.716 154.283C242.566 155.3 242.566 155.3 236.49 153.604ZM148.582 145.621C148.988 144.093 149.613 143.432 152.131 140.844C152.222 140.75 152.332 140.666 152.447 140.602C156.619 138.269 156.661 138.284 159.742 139.341L158.384 143.416C156.054 146.064 155.843 146.304 150.086 147.201C149.162 147.345 148.342 146.524 148.582 145.621ZM161.1 147.492C160.797 143.518 160.797 143.518 162.459 140.7L165.855 144.096C166.213 150.172 166.213 150.172 165.176 152.925H163.817L161.1 147.492ZM186.91 151.567L188.947 148.85C192.865 145.694 192.865 145.694 197.777 146.133V148.171C194.982 152.425 194.982 152.425 187.589 152.925L186.91 151.567ZM198.456 155.642C198.101 151.09 198.101 151.09 199.814 148.171H201.852L203.889 151.567C204.268 157.343 204.268 157.343 202.531 161.075H201.173L198.456 155.642ZM155.667 157.679C154.436 152.374 154.436 152.374 157.025 148.85L159.063 150.208C160.179 155.08 160.179 155.08 157.704 159.717L155.667 157.679ZM180.797 159.717L182.834 157.679C186.347 155.176 186.347 155.176 191.664 155.642V157.679L188.268 161.075H180.797V159.717ZM190.985 161.755L193.701 158.359H195.739L197.097 163.792C195.997 168.261 195.743 169.292 194.481 170.596C193.816 171.282 192.659 170.977 192.34 170.076C191.407 167.441 191.346 166.624 190.985 161.755ZM275.131 159.854L276.605 159.675C279.732 159.28 282.729 158.95 285.886 159.163L288.095 159.335L290.49 159.521L292.99 159.717C295.724 159.93 298.458 160.143 301.192 160.357C301.515 160.382 301.818 160.521 302.045 160.752C309.548 168.396 315.216 178.697 319.648 188.328C321.013 191.314 322.383 194.294 323.832 197.241C331.129 211.782 337.916 227.485 354.669 233.069L346.519 224.919V222.881C353.996 227.872 361.544 232.651 369.385 237.052C372.733 238.928 376.042 240.858 379.33 242.833C380.182 243.345 380.189 244.543 379.408 245.158C378.698 245.716 378.05 246.364 376.403 248.011L375.044 258.199L373.007 259.558C370.547 253.409 368.801 251.002 362.819 248.011V249.37C364.023 250.433 364.594 250.937 365.025 251.671C365.644 252.724 364.309 253.841 363.192 253.348C362.021 252.833 360.835 252.353 359.638 251.877L358.235 251.322C356.628 250.684 355.022 250.047 353.415 249.411C353.345 249.384 353.274 249.362 353.201 249.346C351.163 248.907 349.127 248.465 347.09 248.021L344.523 247.46C339.25 246.324 334.118 245.131 329.037 243.32C328.919 243.279 328.805 243.218 328.704 243.146C324.533 240.166 324.451 240.064 322.822 235.325C322.773 235.183 322.747 235.025 322.747 234.875C322.747 226.372 322.738 225.649 321.699 224.031C321.504 223.728 321.189 223.52 320.836 223.45C318.116 222.912 317.891 222.954 316.207 224.072C316.042 224.182 315.899 224.332 315.796 224.501C312.358 230.149 312.076 230.534 308.605 230.941C308.113 230.999 307.628 230.78 307.343 230.373C305.183 227.289 305.09 227.032 303.602 222.924L303.051 221.523C300.334 220.844 300.334 220.844 295.58 221.523L293.542 224.919H292.184C290.153 213.751 290.728 203.581 292.417 192.416L292.863 189.601C290.164 195.674 290.146 195.714 287.482 205.703C287.448 205.832 287.432 205.975 287.436 206.108C287.976 222.499 287.968 222.537 286.071 231.711H284.033C279.958 228.315 279.958 228.315 276.562 226.277H271.129L270.45 224.919L273.166 220.844L272.487 217.448C271.129 216.769 271.129 216.769 265.016 214.731L255.507 215.41C258.938 187.862 258.968 187.621 268.167 161.765C268.317 161.343 268.671 161.005 269.106 160.899C271.098 160.415 273.084 160.11 275.131 159.854ZM184.872 169.226C181.269 170.592 180.346 170.942 179.308 170.555C178.593 170.289 178.407 169.368 178.826 168.73C179.716 167.376 180.224 166.903 182.834 164.472L182.834 164.471H187.589V166.509L184.872 169.226ZM157.025 178.055C158.065 173.825 158.065 173.825 160.421 169.905H161.1L164.496 178.055C165.98 177.684 167.467 177.323 168.964 177.012L170.779 176.654L174.005 176.017L169.93 184.168C172.571 186.318 175.028 188.517 177.401 190.96L173.326 191.639H167.892V201.827L166.534 201.147L161.1 196.393L158.384 197.751L152.95 201.827V195.035L153.629 192.318L153.628 192.318C148.377 191.756 147.17 191.627 145.664 190.69C144.876 190.199 144.912 189.048 145.671 188.515C150.275 185.284 150.878 184.769 151.378 183.429C151.522 183.041 151.46 182.606 151.235 182.259C149.391 179.412 149.326 179.191 148.196 175.338L157.025 178.055ZM214.077 192.997C215.117 188.767 215.117 188.767 217.473 184.847H218.152L220.19 189.601L220.869 192.997C224.812 191.763 225.525 191.54 228.607 191.208C229.669 191.093 230.432 192.204 229.959 193.163C228.495 196.13 228.269 196.803 227.827 198.961C227.724 199.467 227.921 199.988 228.324 200.31C230.52 202.061 232.407 203.856 234.453 205.902L224.944 207.26V216.09H224.265C219.96 212.4 219.553 212.051 217.497 211.513C217.058 211.399 216.59 211.52 216.254 211.824C213.112 214.664 212.96 214.734 210.002 216.09L210.681 206.581C207.363 206.679 207.363 206.679 201.852 205.223V203.864L208.644 199.11V197.751C206.446 194.368 206.446 194.368 205.248 190.28L214.077 192.997ZM255.472 226.835C254.418 223.186 254.398 223.035 256.002 221.069C256.123 220.921 256.275 220.799 256.447 220.714C260.049 218.923 263.38 217.516 267.333 219.011C267.965 219.25 268.252 219.963 268.04 220.605C266.377 225.618 266.419 225.908 267.054 230.352H268.412C272.381 229.47 272.484 229.448 276.253 230.284C276.455 230.329 276.651 230.424 276.813 230.553C282.928 235.444 283.378 235.764 287.245 235.785C287.772 235.787 288.247 235.479 288.479 235.007C288.955 234.041 289.248 233.676 290.825 231.711L293.542 235.786L296.938 236.465C296.938 232.61 296.398 228.577 297.617 224.919L300.334 225.598C302.947 231.478 303.047 231.702 306.073 234.129C306.314 234.322 306.615 234.428 306.924 234.428C311.511 234.427 311.888 234.41 312.962 233.886C313.144 233.797 313.303 233.665 313.428 233.506C315.083 231.399 316.753 229.554 318.672 227.636L319.351 237.144C321.883 243.474 321.898 243.512 330.738 247.932C330.841 247.983 330.954 248.024 331.067 248.048C333.051 248.47 335.035 248.897 337.018 249.327L339.557 249.879C351.715 252.466 361.898 255.701 371.51 264.189C371.601 264.27 371.682 264.364 371.749 264.467C375.908 270.896 380.065 277.171 385.081 282.974L386.591 284.688C390.338 289.144 394.396 293.233 398.534 297.322L398.664 297.451C400.682 299.443 402.672 301.408 404.504 303.577C408.125 307.986 411.925 312.131 415.984 316.142C417.126 317.16 417.343 317.353 417.978 318.775C418.282 319.453 417.963 320.249 417.284 320.552C412.382 322.74 412.155 322.966 409.004 326.118L402.212 339.702C393.757 347.217 389.085 347.852 377.761 347.852L377.082 347.173V343.777L380.478 340.381C392.438 335.065 392.698 334.95 396.52 331.767C396.688 331.627 396.825 331.44 396.909 331.238C400.018 323.775 400.175 323.331 400.762 316.94C400.816 316.343 400.464 315.773 399.909 315.548C385.57 309.753 385.293 309.521 372.162 298.496L370.969 297.592C362.989 291.601 355.187 285.351 347.699 278.753C346.841 277.99 345.929 278.902 346.673 279.776C359.586 294.932 376.612 307.092 393.377 317.4L395.42 318.647C395.42 324.092 394.848 326.422 391.573 330.584C391.425 330.773 391.227 330.918 391.004 331.005C386.368 332.815 381.827 334.788 377.31 336.879C377.159 336.949 377.022 337.047 376.906 337.166C372.315 341.868 368.627 344.563 362.257 347.126C362.18 347.157 362.098 347.181 362.016 347.197C352.174 349.15 345.518 348.539 336.331 344.456V341.739L343.802 337.664C345.16 334.268 345.16 334.268 344.481 331.551L341.764 330.193L337.01 332.231C332.697 340.134 332.617 340.28 327.78 342.302C327.599 342.378 327.395 342.414 327.198 342.407C320.465 342.159 320.255 342.12 315.584 339.851C315.384 339.754 315.206 339.606 315.076 339.427C312.668 336.118 312.671 335.934 313.874 330.393C313.902 330.263 313.953 330.13 314.017 330.014C317.103 324.458 317.306 324.075 317.871 321.289C317.949 320.905 317.856 320.506 317.617 320.196C315.714 317.72 313.797 315.257 311.824 312.837C290.096 286.45 270.844 257.662 255.563 227.067C255.526 226.994 255.495 226.914 255.472 226.835ZM276.009 308.113C259.409 287.681 252.912 262.417 255.507 236.465H256.187C271.672 265.282 288.41 293.744 309.925 318.551C311.391 320.097 311.391 320.097 312.559 322.722L306.447 334.268C293.532 339.224 293.407 339.272 279.027 337.711C278.755 337.681 278.486 337.567 278.28 337.388C269.099 329.392 265.46 320.657 261.62 309.138C259.634 301.138 259.277 299.7 260.549 297.702C261.037 296.937 262.156 296.97 262.701 297.695C267.875 304.573 272.815 309.405 279.55 314.378C280.2 314.858 280.953 314.115 280.449 313.483C278.961 311.699 277.483 309.908 276.009 308.113ZM146.158 250.728L149.554 242.578H150.233L153.629 250.728L162.459 248.691L163.138 250.049C161.1 253.445 161.1 253.445 159.742 257.52L166.534 262.953L164.496 264.312H157.025L157.704 273.82H155.667L150.233 269.066L148.069 270.637C146.115 272.054 144.173 273.246 142.083 274.5L142.762 264.991C135.871 264.47 135.871 264.47 133.933 262.274L140.725 257.52V256.162L137.329 248.691L146.158 250.728ZM212.719 260.237C212.719 260.237 208.531 258.215 205.927 255.482C207.322 255.25 208.677 255.116 210.023 254.983L210.024 254.983L210.054 254.98L214 254.5L215.418 250.863L215.428 250.836C215.892 249.631 216.352 248.436 216.794 247.332H218.152L219.352 250.997C219.762 252.145 220.169 253.286 220.5 254.5C221.78 254.5 223.134 254.902 224.478 255.301L224.508 255.31L228.297 256.076C228.202 255.882 228.25 255.965 228.315 256.08L228.34 256.085C228.513 256.431 228.426 256.276 228.34 256.124V256.162C227.409 256.86 226.389 257.547 225.377 258.23L225.354 258.245L222.5 260.237L223.402 264.75C223.724 266.196 224.043 267.631 224.264 269.066C220.478 266.542 220.21 266.363 217.467 265.261C217.047 265.092 216.57 265.145 216.195 265.397C214.176 266.753 212.206 267.964 210.002 269.066L212.719 260.237ZM378.44 258.878L379.799 249.37C381.908 247.643 382.002 247.566 385.411 248.546C385.732 248.638 386.011 248.848 386.187 249.131C387.573 251.356 387.57 251.603 386.691 254.476C386.625 254.69 386.505 254.888 386.346 255.046C382.856 258.495 382.76 258.503 378.44 258.878ZM213.398 313.893L216.794 305.742H217.473L220.869 313.893L225.623 313.213L230.378 312.534L226.302 321.364H227.661C231.17 323.967 231.17 323.967 233.773 327.476L224.265 328.155L224.944 337.664H223.586L217.473 332.231L211.87 336.433L209.323 338.343L210.002 328.155C206.684 328.254 206.684 328.254 201.173 326.797V325.439C207.285 321.364 207.285 321.364 207.964 319.326L204.568 311.855L204.86 311.913L204.863 311.914L204.865 311.914C206.409 312.223 207.954 312.532 209.485 312.898L213.398 313.893ZM30.4049 349.82C34.7369 343.991 39.131 338.282 43.8352 332.752C44.1145 332.424 44.5343 332.249 44.9642 332.281C64.6353 333.741 91 339 100.502 347.756C106.283 352.423 105.264 358.95 105.264 358.95C105.264 365 98.4704 367.203 92.5 370C82.8932 374.5 64.9005 376 61.8239 383.771C58.1775 381.334 45.7 376.235 36.5 375.019C27.3 373.804 18.124 372.646 13.186 372.219C18.9802 364.795 24.7695 357.364 30.4049 349.82ZM512.139 333.509L513.556 333.334C516.941 332.916 520.367 332.312 523.782 332.238C524.212 332.229 524.617 332.434 524.873 332.78C527.628 336.489 530.402 340.177 533.266 343.803C535.909 347.142 538.52 350.497 541.065 353.912C544.892 359.059 548.825 364.106 552.854 369.098C554.442 370.972 554.684 371.258 556.144 373.972C556.593 374.806 556.067 375.832 555.127 375.951C553.266 376.186 551.405 376.4 549.535 376.581C539.387 377.517 532 377.5 519.711 381.132C515 383 512 384.5 508.165 386.566C505.459 381.153 505.449 381.132 496.049 376.433C495.978 376.397 495.902 376.366 495.826 376.344C493.892 375.77 491.959 375.194 490.027 374.612L487.577 373.873C479.048 371.349 472.431 368.89 465.612 362.999C463 360.5 462.516 357.177 463.941 352.927C463.991 352.718 464.092 352.52 464.233 352.357C475.951 338.92 495.113 335.653 512.139 333.509ZM83.099 405.599C119.317 411.009 140.218 402.478 168.489 383.87C203.932 360.518 239.176 342.382 282.494 342.211L284.288 342.206C314.636 342.07 343.743 349.903 370.003 365.225L371.649 366.19C380.245 371.18 388.601 376.489 396.911 381.941C415.809 394.344 437.925 407.57 461.498 407.654C461.498 407.654 475.508 407.461 482.726 405.916L484.436 405.54C489.67 404.414 493.396 403.02 498.657 400.829L506.128 396.074C506.924 400.067 507.718 404.061 508.509 408.056L508.874 409.902L509.481 412.969L509.629 413.711L509.701 414.071L509.798 414.558C510.171 416.429 510.544 418.3 510.914 420.172L511.367 422.472C512.331 427.272 513.131 432.009 513.547 436.881C513.574 437.19 513.487 437.501 513.313 437.756C513.265 437.827 513.21 437.894 513.148 437.955C508.362 444.453 502.209 448.732 486.431 452.447C440.646 457.534 407.312 442.145 370.29 417.129C367.81 415.451 365.341 413.757 362.835 412.122C360.41 410.538 357.949 409.008 355.413 407.601L354.032 406.856C352.485 406.012 350.935 405.172 349.38 404.342L347.877 403.545C323.23 390.416 295.676 385.178 267.861 388.409L266.375 388.603C242.807 391.571 222.286 401.617 202.727 414.141C199.197 416.401 195.697 418.742 192.217 421.138C163.679 440.843 133.618 455.9 97.936 453.805C81.9339 452.686 66.8526 451.193 55.5433 438.63C55.2904 438.349 55.1708 437.957 55.2101 437.581C57.2942 417.639 57.4109 416.782 62.1094 398.097C62.3486 397.146 63.4896 396.749 64.2904 397.316C70.052 401.392 75.6478 403.286 82.8932 405.551C82.9598 405.572 83.03 405.588 83.099 405.599ZM463.535 404.041C463.535 392.04 458.205 377.385 462 366C462 366 466.78 369.296 468 370C469.384 370.799 471.685 371.78 471.685 371.78C483.911 376.874 496.584 377.588 503.83 386.247C504.002 386.453 504.103 386.709 504.126 386.976C504.458 390.828 504.369 391.011 501.527 394.526C501.427 394.65 501.302 394.759 501.165 394.84C488.9 402.143 478.182 403.586 463.875 404.381L463.535 404.041ZM80.8764 377.604C87.1118 375.697 93.1466 373.53 99.1552 371.003C99.2477 370.964 99.3356 370.915 99.4162 370.856C101.868 369.742 103.566 368.384 104.728 367.548V404.106L104.176 404.076C90.5943 403.325 76.8751 402.567 66.1694 393.49C66.0669 393.403 65.9758 393.297 65.9038 393.184C63.4938 390.458 63.4938 388.42 64.5575 386.215C64.6219 385.999 64.7393 385.802 64.9005 385.645C69.4685 381.204 74.8298 379.476 80.8764 377.604ZM219.491 412.899C218.753 412.657 217 412 217 412C217 412 217.729 410.804 218.5 410.5C235 404 250.882 408.113 281.847 429.007L283.354 430.034L286.75 428.675C292.036 425.159 297.468 422.073 303.101 419.163L304.409 418.487C314.981 412.959 327.52 405.401 339.383 403.596C339.609 403.562 341.286 403.419 341.5 403.5C351 407.601 351.65 407.743 352.5 410.5C352.708 411.174 351.443 411.879 350.781 412.122C337.181 417.096 323.674 422.997 310.899 429.78L309.163 430.713C301.209 434.988 293.619 439.495 286.44 444.986L284.713 446.334L281.996 444.976C263.257 430.74 241.26 421.474 219.491 412.899Z" fill="#000F46"/>
<path d="M188.464 66.5638C188.464 66.3388 188.654 66.1584 188.879 66.1742C194.789 66.5882 200.637 67.3173 206.498 68.1777C207.978 68.3936 209.459 68.601 210.941 68.808C222.044 70.4037 231.054 71.7698 238.951 79.872C239.718 80.6585 240.309 81.5986 240.755 82.6023C241.378 84.0035 242.004 85.412 242.642 86.8482C242.741 87.0712 242.737 87.3237 242.628 87.542V87.542C242.379 88.0406 241.713 88.1517 241.318 87.7575C238.951 85.3896 236.583 83.0218 234.215 80.654C233.602 80.0416 232.897 79.5272 232.113 79.159C223.797 75.2533 214.816 73.6129 205.826 71.7489C204.792 71.5325 203.759 71.3158 202.725 71.0989C200.511 70.6346 198.296 70.1729 196.081 69.7129C195.532 69.5989 194.992 69.4361 194.471 69.2278C191.939 68.2148 191.62 68.0872 188.71 66.9232C188.562 66.8642 188.464 66.7228 188.464 66.5638V66.5638Z" fill="#000F46"/>
<path d="M308.222 269.211C331.094 303.182 348.074 317.785 348.074 317.785C348.074 317.785 351.778 322.2 351.809 324.237C351.866 327.972 351.583 329.008 350.929 330.716C350.617 330.284 350.433 330.116 350.111 329.67C347.594 326.617 344.713 323.951 341.506 319.651C313.203 281.702 310.326 273.594 308.222 269.211Z" fill="#000F46"/>
<path d="M296.455 144.252C296.679 144.925 296.455 145.271 296.116 146.29C294.757 149.346 293.739 151.044 290.343 152.402C286.267 152.742 283.211 152.402 280.834 150.025C279.815 148.327 279.815 147.648 279.476 145.95C280.834 147.309 280.817 147.298 282.532 148.327C286.267 150.025 288.305 150.025 293.059 147.309C294.078 146.629 295.532 145.176 296.455 144.252Z" fill="#000F46"/>
</g>
<defs>
<filter id="filter0_d_1396_715" x="0.7" y="0.608325" width="588.6" height="478.473" filterUnits="userSpaceOnUse" color-interpolation-filters="sRGB">
<feFlood flood-opacity="0" result="BackgroundImageFix"/>
<feColorMatrix in="SourceAlpha" type="matrix" values="0 0 0 0 0 0 0 0 0 0 0 0 0 0 0 0 0 0 127 0" result="hardAlpha"/>
<feOffset dx="8" dy="8"/>
<feGaussianBlur stdDeviation="6.4"/>
<feComposite in2="hardAlpha" operator="out"/>
<feColorMatrix type="matrix" values="0 0 0 0 0 0 0 0 0 0 0 0 0 0 0 0 0 0 0.25 0"/>
<feBlend mode="normal" in2="BackgroundImageFix" result="effect1_dropShadow_1396_715"/>
<feBlend mode="normal" in="SourceGraphic" in2="effect1_dropShadow_1396_715" result="shape"/>
</filter>
</defs>
</svg>
