<svg width="450" height="450" viewBox="0 0 450 450" fill="none" xmlns="http://www.w3.org/2000/svg">
<path d="M42.7585 9C162.868 9 282.977 9 406.726 9C406.858 48.9706 406.99 88.9412 407.125 130.123C407.183 142.696 407.242 155.269 407.301 168.223C407.33 183.698 407.33 183.698 407.336 190.966C407.342 195.991 407.365 201.015 407.4 206.04C407.783 263.419 397.317 312.582 358.836 357.004C358.107 357.85 357.378 358.695 356.627 359.566C325.656 395.148 288.464 418.266 245.495 436.822C244.442 437.29 243.389 437.757 242.305 438.24C227.96 444.524 218.907 442.142 204.58 436.874C200.457 435.233 196.383 433.509 192.317 431.733C190.136 430.785 190.136 430.785 187.911 429.819C130.401 404.379 80.2443 358.63 54.9307 300.533C54.1893 298.874 54.1893 298.874 53.433 297.18C40.9034 266.85 41.8886 235.56 42.1118 203.385C42.1486 197.206 42.1499 191.028 42.1545 184.85C42.1877 166.874 42.2769 148.897 42.3595 130.921C42.4912 90.6872 42.6228 50.4532 42.7585 9ZM50.7403 18.5781C50.6086 56.1452 50.4769 93.7123 50.3412 132.418C50.2831 144.226 50.2249 156.034 50.165 168.2C50.1437 178.899 50.1437 178.899 50.1308 189.597C50.125 194.317 50.1013 199.037 50.0661 203.757C49.6594 260.95 60.6061 305.642 97.0344 350.619C97.911 351.862 98.7877 353.105 99.6908 354.385C100.746 355.682 100.746 355.682 101.823 357.004C102.877 357.004 103.931 357.004 105.016 357.004C105.646 358.409 105.646 358.409 106.288 359.841C125.463 395.265 182.644 419.388 217.952 432.949C243.033 437.687 280.555 411.324 300.17 398.01C325.904 380.002 349.951 358.149 366.817 331.463C367.379 330.595 367.94 329.727 368.518 328.833C389.653 296.014 399.034 262.053 398.926 223.001C398.925 220.73 398.925 218.459 398.926 216.188C398.927 210.136 398.917 204.084 398.906 198.032C398.897 192.342 398.897 186.652 398.895 180.961C398.887 164.348 398.865 147.734 398.844 131.121C398.795 75.4121 398.795 75.4121 398.744 18.5781C283.903 18.5781 169.062 18.5781 50.7403 18.5781Z" fill="#334155"/>
<path d="M117.787 56.8906C188.378 56.8906 258.968 56.8906 331.698 56.8906C329.591 58.471 327.483 60.0514 325.312 61.6797C323.676 62.9483 323.676 62.9483 322.007 64.2426C320.384 65.4927 320.384 65.4927 318.727 66.768C317.092 68.0367 317.092 68.0367 315.423 69.3309C312.542 71.2578 312.542 71.2578 309.349 71.2578C308.756 72.5912 308.756 72.5912 308.152 73.9516C306.156 77.6432 306.156 77.6432 303.132 81.3472C291.177 96.562 286.83 115.121 282.211 133.515C313.624 126.188 336.07 117.314 355.643 90.414C357.223 88.3068 358.804 86.1996 360.432 84.0286C360.432 155.146 360.432 226.263 360.432 299.536C352.45 289.559 352.45 289.559 348.859 284.869C348.027 283.793 347.196 282.717 346.339 281.608C344.469 278.783 344.469 278.783 344.469 275.59C343.571 275.173 342.674 274.755 341.75 274.325C337.737 272.216 334.214 269.71 330.501 267.11C315.883 257.692 298.914 254.155 282.211 250.049C289.976 281.609 299.349 306.272 327.9 324.173C329.78 325.411 329.78 325.411 331.698 326.674C331.698 327.2 331.698 327.727 331.698 328.27C260.58 328.27 189.463 328.27 116.191 328.27C121.49 324.03 126.431 320.357 132.054 316.696C153.371 301.8 161.069 276.208 165.678 251.645C145.842 253.788 127.162 259.936 111.402 272.398C110.348 272.398 109.294 272.398 108.209 272.398C108.209 273.451 108.209 274.505 108.209 275.59C107.155 275.59 106.102 275.59 105.016 275.59C104.588 276.492 104.16 277.393 103.719 278.322C101.713 282.189 99.456 285.739 97.0345 289.359C96.2114 290.598 95.3882 291.837 94.5402 293.113C92.2454 296.343 92.2454 296.343 89.0527 299.536C89.0527 228.418 89.0527 157.301 89.0527 84.0286C91.6474 87.4882 94.2193 90.9681 96.6541 94.542C111.785 116.456 131.877 126.276 157.696 131.919C162.132 132.147 162.132 132.147 165.678 131.919C159.72 105.919 153.082 80.6763 129.392 65.2216C126.565 63.5311 123.713 61.8824 120.83 60.2891C119.826 59.6944 118.822 59.0997 117.787 58.487C117.787 57.9602 117.787 57.4334 117.787 56.8906ZM175.256 146.286C175.256 169.992 175.256 193.698 175.256 218.122C186.318 218.649 197.381 219.176 208.779 219.718C214.31 220.508 214.31 220.508 219.953 221.315C220.156 211.201 220.296 201.089 220.392 190.974C220.432 187.533 220.486 184.092 220.556 180.652C220.652 175.707 220.698 170.763 220.733 165.817C220.774 164.278 220.815 162.74 220.858 161.155C220.98 152.387 220.98 152.387 216.186 145.311C211.346 142.764 208.437 142.333 202.992 142.495C201.49 142.515 199.988 142.536 198.44 142.557C190.648 143.3 182.957 144.886 175.256 146.286ZM229.531 149.479C228.098 158.515 227.718 167.283 227.779 176.417C227.781 177.71 227.784 179.003 227.786 180.335C227.795 184.417 227.815 188.499 227.835 192.58C227.843 195.368 227.851 198.155 227.857 200.942C227.875 207.733 227.902 214.524 227.935 221.315C235.047 220.524 235.047 220.524 242.302 219.718C258.106 218.928 258.106 218.928 274.229 218.122C274.229 194.416 274.229 170.71 274.229 146.286C250.477 140.702 250.477 140.702 229.531 149.479ZM157.696 152.672C157.116 155.828 157.116 155.828 157.396 159.257C157.495 161.298 157.594 163.339 157.696 165.442C154.934 165.259 152.174 165.055 149.415 164.844C147.109 164.677 147.109 164.677 144.757 164.507C140.112 163.843 136.418 162.571 132.154 160.653C130.278 162.132 128.419 163.633 126.567 165.143C125.53 165.976 124.493 166.81 123.424 167.669C120.429 170.219 120.429 170.219 120.98 175.02C123.428 177.7 123.428 177.7 126.567 180.109C128.123 181.377 128.123 181.377 129.71 182.672C130.516 183.308 131.323 183.943 132.154 184.599C133.28 184.092 134.405 183.586 135.565 183.065C142.834 180.427 150.004 180.366 157.696 179.81C157.696 187.711 157.696 195.613 157.696 203.755C154.831 203.524 151.967 203.294 149.016 203.056C147.404 202.927 145.793 202.797 144.133 202.664C140.136 202.158 140.136 202.158 138.54 200.562C134.022 199.628 134.022 199.628 128.961 200.562C125.511 203.467 123.564 206.34 120.98 210.14C120.634 213.825 120.634 213.825 124.472 217.424C128.971 221.323 131.063 222.752 136.943 222.911C137.997 221.857 139.05 220.804 140.136 219.718C144.289 219.057 144.289 219.057 149.115 218.721C151.947 218.523 154.778 218.325 157.696 218.122C157.696 223.917 157.696 229.711 157.696 235.682C159.201 235.713 160.707 235.745 162.258 235.778C167.867 235.903 173.475 236.041 179.082 236.188C181.505 236.249 183.928 236.305 186.352 236.355C189.843 236.428 193.334 236.521 196.825 236.617C198.923 236.667 201.022 236.717 203.184 236.769C208.443 237.248 212.001 238.316 216.761 240.471C220.744 240.969 220.744 240.969 224.742 240.87C226.059 240.878 227.376 240.886 228.733 240.895C232.75 240.679 232.75 240.679 236.217 238.889C241.842 236.87 246.688 236.76 252.66 236.617C253.782 236.586 254.905 236.555 256.062 236.523C259.623 236.429 263.184 236.354 266.746 236.28C269.171 236.219 271.596 236.157 274.02 236.093C279.943 235.941 285.866 235.806 291.789 235.682C291.789 229.887 291.789 224.092 291.789 218.122C293.596 218.177 295.403 218.233 297.264 218.29C299.629 218.335 301.995 218.379 304.36 218.421C305.552 218.461 306.743 218.501 307.971 218.543C311.843 218.649 311.843 218.649 317.331 218.122C320.916 213.83 320.916 213.83 320.224 210.04C319.021 206.373 319.021 206.373 314.138 203.755C308.658 203.367 308.658 203.367 302.664 203.555C299.075 203.621 295.487 203.687 291.789 203.755C291.789 195.853 291.789 187.951 291.789 179.81C303.462 180.109 303.462 180.109 307.118 180.241C311.797 180.299 314.98 180.32 318.915 177.658C320.925 174.936 320.925 174.936 320.224 170.83C319.332 166.775 319.332 166.775 315.734 165.442C311.661 165.328 307.633 165.294 303.562 165.343C301.871 165.353 301.871 165.353 300.145 165.364C297.36 165.383 294.574 165.412 291.789 165.442C291.789 161.228 291.789 157.014 291.789 152.672C288.628 151.618 285.468 150.564 282.211 149.479C282.211 174.765 282.211 200.051 282.211 226.104C262.556 225.804 262.556 225.804 256.474 225.672C247.551 225.607 239.975 226.04 231.458 228.816C223.768 231.208 220.005 230.394 212.721 227.359C204.503 224.742 195.663 225.622 187.128 225.804C177.3 225.953 177.3 225.953 167.274 226.104C167.274 200.817 167.274 175.531 167.274 149.479C162.19 149.036 162.19 149.036 157.696 152.672Z" fill="#334155"/>
</svg>
