<svg width="450" height="450" viewBox="0 0 450 450" fill="none" xmlns="http://www.w3.org/2000/svg">
<path d="M51.7224 19C166.109 19 280.496 19 398.348 19C398.474 57.0661 398.599 95.1323 398.728 134.352C398.784 146.326 398.839 158.3 398.896 170.636C398.924 185.374 398.924 185.374 398.929 192.296C398.934 197.081 398.957 201.866 398.99 206.652C399.355 261.297 389.387 308.117 352.74 350.423C352.045 351.228 351.351 352.034 350.636 352.863C321.141 386.75 285.721 408.766 244.799 426.438C243.797 426.883 242.794 427.329 241.761 427.788C228.1 433.773 219.478 431.504 205.834 426.488C201.907 424.925 198.028 423.283 194.155 421.592C192.078 420.689 192.078 420.689 189.959 419.768C135.189 395.541 87.4221 351.972 63.3146 296.643C62.6085 295.062 62.6085 295.062 61.8882 293.45C49.9556 264.564 50.8939 234.766 51.1065 204.123C51.1416 198.239 51.1428 192.355 51.1471 186.471C51.1788 169.351 51.2637 152.232 51.3423 135.112C51.4677 96.7951 51.5932 58.4781 51.7224 19ZM59.3238 28.1217C59.1984 63.8989 59.073 99.6761 58.9438 136.537C58.8884 147.783 58.833 159.029 58.776 170.615C58.7557 180.804 58.7557 180.804 58.7434 190.992C58.7378 195.487 58.7153 199.982 58.6818 204.477C58.2945 258.945 68.7196 301.508 103.412 344.342C104.247 345.526 105.082 346.709 105.942 347.929C106.947 349.164 106.947 349.164 107.973 350.423C108.977 350.423 109.98 350.423 111.014 350.423C111.613 351.761 111.613 351.761 112.225 353.125C130.486 386.861 184.943 409.834 218.568 422.75C242.454 427.262 278.189 402.155 296.869 389.476C321.377 372.325 344.278 351.514 360.341 326.098C360.876 325.272 361.41 324.446 361.961 323.595C382.089 292.339 391.022 259.996 390.92 222.805C390.919 220.642 390.919 218.479 390.92 216.316C390.92 210.553 390.912 204.789 390.901 199.026C390.892 193.606 390.892 188.187 390.891 182.768C390.883 166.946 390.862 151.124 390.842 135.302C390.795 82.2478 390.795 82.2478 390.747 28.1217C281.377 28.1217 172.008 28.1217 59.3238 28.1217Z" fill="#334155"/>
<path d="M123.176 64.6089C190.403 64.6089 257.63 64.6089 326.895 64.6089C324.888 66.114 322.881 67.6191 320.813 69.1698C319.255 70.3779 319.255 70.3779 317.666 71.6105C316.12 72.8011 316.12 72.8011 314.542 74.0157C312.984 75.2239 312.984 75.2239 311.395 76.4565C308.651 78.2915 308.651 78.2915 305.611 78.2915C305.046 79.5614 305.046 79.5614 304.47 80.857C302.57 84.3727 302.57 84.3727 299.69 87.9002C288.305 102.39 284.165 120.065 279.766 137.583C309.682 130.605 331.058 122.153 349.699 96.535C351.204 94.5282 352.709 92.5214 354.26 90.4538C354.26 158.183 354.26 225.912 354.26 295.693C346.658 286.191 346.658 286.191 343.238 281.725C342.446 280.7 341.654 279.675 340.838 278.619C339.057 275.929 339.057 275.929 339.057 272.889C338.202 272.491 337.348 272.093 336.468 271.683C332.646 269.675 329.29 267.288 325.754 264.812C311.834 255.843 295.673 252.474 279.766 248.564C287.16 278.62 296.087 302.108 323.278 319.156C325.068 320.335 325.068 320.335 326.895 321.538C326.895 322.04 326.895 322.541 326.895 323.058C259.166 323.058 191.437 323.058 121.655 323.058C126.703 319.02 131.408 315.522 136.763 312.036C157.065 297.849 164.396 273.476 168.784 250.084C149.894 252.125 132.104 257.98 117.095 269.848C116.091 269.848 115.088 269.848 114.054 269.848C114.054 270.851 114.054 271.855 114.054 272.889C113.051 272.889 112.047 272.889 111.013 272.889C110.606 273.747 110.198 274.605 109.778 275.49C107.868 279.172 105.718 282.553 103.412 286.001C102.628 287.181 101.844 288.361 101.037 289.576C98.8511 292.652 98.8511 292.652 95.8105 295.693C95.8105 227.964 95.8105 160.235 95.8105 90.4538C98.2816 93.7486 100.731 97.0627 103.05 100.466C117.46 121.336 136.595 130.688 161.183 136.062C165.408 136.279 165.408 136.279 168.784 136.062C163.111 111.302 156.789 87.2613 134.228 72.5429C131.536 70.933 128.819 69.3628 126.074 67.8454C125.117 67.2791 124.161 66.7127 123.176 66.1292C123.176 65.6275 123.176 65.1258 123.176 64.6089ZM177.906 149.745C177.906 172.321 177.906 194.898 177.906 218.158C188.442 218.66 198.977 219.162 209.832 219.678C215.1 220.431 215.1 220.431 220.474 221.199C220.667 211.567 220.8 201.936 220.892 192.304C220.93 189.027 220.982 185.75 221.048 182.474C221.14 177.764 221.183 173.056 221.217 168.345C221.256 166.88 221.295 165.415 221.336 163.905C221.452 155.555 221.452 155.555 216.886 148.816C212.277 146.391 209.506 145.981 204.321 146.134C202.891 146.154 201.46 146.174 199.986 146.194C192.565 146.901 185.24 148.412 177.906 149.745ZM229.596 152.786C228.231 161.391 227.869 169.742 227.927 178.441C227.929 179.672 227.932 180.903 227.934 182.172C227.942 186.059 227.961 189.946 227.981 193.833C227.988 196.488 227.995 199.143 228.002 201.797C228.018 208.264 228.044 214.732 228.076 221.199C234.849 220.446 234.849 220.446 241.758 219.678C256.809 218.926 256.809 218.926 272.164 218.158C272.164 195.582 272.164 173.006 272.164 149.745C249.543 144.427 249.543 144.427 229.596 152.786ZM161.183 155.826C160.631 158.833 160.631 158.833 160.898 162.097C160.992 164.042 161.086 165.986 161.183 167.989C158.553 167.814 155.924 167.62 153.296 167.418C151.101 167.26 151.101 167.26 148.86 167.098C144.437 166.465 140.919 165.254 136.858 163.428C135.071 164.836 133.301 166.266 131.537 167.704C130.55 168.497 129.562 169.291 128.544 170.109C125.692 172.537 125.692 172.537 126.216 177.11C128.548 179.662 128.548 179.662 131.537 181.956C133.019 183.164 133.019 183.164 134.53 184.397C135.299 185.003 136.067 185.608 136.858 186.232C137.93 185.75 139.002 185.268 140.107 184.771C147.029 182.259 153.858 182.201 161.183 181.671C161.183 189.197 161.183 196.722 161.183 204.476C158.455 204.256 155.727 204.037 152.916 203.81C151.382 203.687 149.847 203.563 148.266 203.436C144.46 202.955 144.46 202.955 142.94 201.435C138.637 200.545 138.637 200.545 133.818 201.435C130.532 204.202 128.677 206.938 126.216 210.557C125.887 214.066 125.887 214.066 129.542 217.493C133.827 221.207 135.819 222.568 141.419 222.719C142.423 221.716 143.426 220.712 144.46 219.678C148.415 219.049 148.415 219.049 153.011 218.728C155.708 218.54 158.405 218.352 161.183 218.158C161.183 223.677 161.183 229.195 161.183 234.881C162.617 234.911 164.051 234.942 165.528 234.973C170.869 235.092 176.21 235.223 181.551 235.364C183.858 235.422 186.166 235.475 188.474 235.523C191.799 235.592 195.123 235.681 198.448 235.772C200.446 235.82 202.445 235.868 204.503 235.917C209.512 236.372 212.901 237.39 217.434 239.442C221.227 239.917 221.227 239.917 225.035 239.822C226.289 239.83 227.544 239.838 228.836 239.846C232.662 239.641 232.662 239.641 235.963 237.936C241.32 236.013 245.935 235.908 251.622 235.772C252.691 235.743 253.761 235.713 254.862 235.683C258.254 235.593 261.646 235.522 265.038 235.451C267.347 235.393 269.656 235.334 271.965 235.273C277.606 235.128 283.246 235 288.887 234.881C288.887 229.363 288.887 223.844 288.887 218.158C290.608 218.211 292.329 218.264 294.101 218.318C296.354 218.361 298.607 218.403 300.86 218.443C301.994 218.481 303.129 218.52 304.298 218.559C307.986 218.66 307.986 218.66 313.212 218.158C316.626 214.07 316.626 214.07 315.967 210.462C314.822 206.969 314.822 206.969 310.171 204.476C304.952 204.107 304.952 204.107 299.244 204.285C295.826 204.348 292.409 204.411 288.887 204.476C288.887 196.95 288.887 189.425 288.887 181.671C300.004 181.956 300.004 181.956 303.486 182.082C307.942 182.138 310.973 182.157 314.72 179.622C316.635 177.03 316.635 177.03 315.967 173.12C315.118 169.257 315.118 169.257 311.692 167.989C307.813 167.88 303.977 167.847 300.099 167.894C298.489 167.904 298.489 167.904 296.845 167.914C294.192 167.932 291.54 167.96 288.887 167.989C288.887 163.975 288.887 159.961 288.887 155.826C285.877 154.823 282.867 153.819 279.766 152.786C279.766 176.867 279.766 200.948 279.766 225.76C261.047 225.475 261.047 225.475 255.255 225.349C246.757 225.287 239.542 225.699 231.431 228.343C224.108 230.62 220.524 229.845 213.586 226.955C205.76 224.462 197.342 225.3 189.213 225.475C179.854 225.616 179.854 225.616 170.305 225.76C170.305 201.678 170.305 177.597 170.305 152.786C165.463 152.364 165.463 152.364 161.183 155.826Z" fill="#334155"/>
</svg>
