<svg width="1312" height="450" viewBox="0 0 1312 450" fill="none" xmlns="http://www.w3.org/2000/svg">
<g clip-path="url(#clip0_1385_302)">
<path d="M535.874 150.091H511.758V147.019H520.151V99.1424H503.365V105.816H499.328V92.5754H503.365V94.9058H544.267V92.5754H548.304V105.816H544.267V99.1424H527.481V147.019H535.874V150.091Z" fill="#334155"/>
<path d="M612.157 150.091H592.184V147.019H598.451V124.034H567.001V147.019H573.274V150.091H553.301V147.019H559.568V98.0837H553.301V95.012H573.274V98.0837H567.001V120.327H598.451V98.0837H592.184V95.012H612.157V98.0837H605.78V147.126H612.157V150.091Z" fill="#334155"/>
<path d="M657.309 150.088H619.168V147.017H625.435V98.0809H619.168V95.0092H652.632V92.6788H656.456V105.919H652.632V98.8223H632.764V120.218H648.593V113.969L652.417 113.863V130.281L648.593 130.387V123.926H632.764V146.381H653.375V139.072H657.199V150.088H657.309Z" fill="#334155"/>
<path d="M740.17 98.0837H733.903V129.966C733.903 138.863 730.717 144.69 723.702 148.503C720.197 150.303 716.164 151.363 712.016 151.363C699.905 151.363 690.876 143.312 690.876 132.403V98.0837H684.609V95.012H704.582V98.0837H698.315V129.754C698.315 139.923 704.263 146.49 713.611 146.49C723.174 146.49 729.655 139.711 729.655 129.649V98.0837H723.383V95.012H740.28V98.0837H740.17Z" fill="#334155"/>
<path d="M791.913 151.045H789.256L757.068 106.875V147.019H763.439V150.091H746.443V147.019H752.815V101.262L750.586 98.0837H744.848V95.012H757.068L787.77 136.957V98.0837H781.393V95.012H798.285V98.0837H792.018V151.045H791.913Z" fill="#334155"/>
<path d="M824.315 150.091H804.342V147.019H810.609V98.0837H804.342V95.012H824.315V98.0837H818.048V147.126H824.315V150.091Z" fill="#334155"/>
<path d="M858.203 151.575H855.336L834.197 98.0837H829.201V95.012H850.027V98.0837H842.164L858.418 139.181L874.566 98.0837H869.042V95.012H883.386V98.0837H879.238L858.203 151.575Z" fill="#334155"/>
<path d="M926.621 150.088H888.48V147.017H894.753V98.0809H888.48V95.0092H921.95V92.6788H925.774V105.919H921.95V98.8223H902.082V120.218H917.911V113.969L921.735 113.863V130.281L917.911 130.387V123.926H902.082V146.381H922.693V139.072H926.517V150.088H926.621Z" fill="#334155"/>
<path d="M983.141 150.091H976.027C971.031 150.091 970.183 149.562 967.421 145.113L954.882 125.305H948.296V147.019H954.563V150.091H934.59V147.019H940.862V98.0837H934.59V95.012H957.963C966.145 95.012 970.711 97.2362 973.264 102.427C974.326 104.651 974.965 107.193 974.965 109.841C974.965 117.997 970.392 123.187 962.425 124.352L974.535 142.889C976.555 145.961 977.936 147.019 979.955 147.019H983.251V150.091H983.141ZM948.296 121.492H956.373C962.744 121.492 967.207 116.832 967.207 109.947C967.207 102.744 963.278 98.7195 956.263 98.7195H948.406V121.492H948.296Z" fill="#334155"/>
<path d="M993.87 150.939H989.941V135.898H993.87V142.465C998.97 145.855 1001.2 146.702 1004.92 146.702C1011.61 146.702 1016.18 143.206 1016.18 137.91C1016.18 133.144 1012.89 129.648 1003.86 124.988C993.237 119.48 989.727 115.243 989.727 108.464C989.727 100.202 996.742 93.9527 1006.3 93.9527C1010.45 93.9527 1013.63 94.6941 1016.29 96.2831V93.2113H1020.11V107.511H1016.29V101.579C1012.04 98.7196 1009.91 97.872 1006.51 97.872C1000.77 97.872 997.165 101.262 997.165 106.451C997.165 110.689 999.608 113.125 1010.13 119.162C1020.64 125.2 1023.62 128.907 1023.62 135.686C1023.62 144.372 1016.4 151.045 1006.94 151.045C1001.63 151.045 998.227 149.986 993.98 147.232V150.939H993.87Z" fill="#334155"/>
<path d="M1051.13 150.091H1031.16V147.019H1037.43V98.0837H1031.16V95.012H1051.13V98.0837H1044.87V147.126H1051.13V150.091Z" fill="#334155"/>
<path d="M1093.1 150.091H1068.98V147.019H1077.37V99.1424H1060.59V105.816H1056.55V92.5754H1060.59V94.9058H1101.49V92.5754H1105.53V105.816H1101.49V99.1424H1084.71V147.019H1093.1V150.091Z" fill="#334155"/>
<path d="M1146.11 150.091H1126.14V147.019H1132.41V124.67L1115.09 97.9775H1110.21V94.9058H1130.92V97.9775H1123.27L1137.72 119.903L1151.11 97.9775H1143.46V94.9058H1160.24V97.9775H1155.89L1139.74 124.14V147.019H1146.11V150.091Z" fill="#334155"/>
<path d="M1181.81 122.657C1181.81 106.981 1194.03 93.9526 1208.9 93.9526C1223.46 93.9526 1235.78 106.981 1235.78 122.552C1235.78 138.122 1223.56 151.257 1208.9 151.257C1194.24 151.257 1181.81 138.228 1181.81 122.657ZM1190.2 122.552C1190.2 136.639 1198.06 146.913 1209.01 146.913C1219.74 146.913 1227.6 136.639 1227.6 122.552C1227.6 108.464 1219.84 98.2954 1209.11 98.2954C1198.06 98.2954 1190.2 108.358 1190.2 122.552Z" fill="#334155"/>
<path d="M1260.96 150.088H1240.99V147.017H1247.25V98.0809H1240.99V95.0092H1274.45V92.6788H1278.27V105.919H1274.45V98.8223H1254.58V120.218H1270.41V113.969L1274.24 113.863V130.281L1270.41 130.387V123.926H1254.58V147.017H1260.85V150.088H1260.96Z" fill="#334155"/>
<path d="M509.74 328.782H499.329V289.168H509.74V306.539C523.233 315.648 529.182 317.766 538.956 317.766C556.697 317.766 568.598 308.551 568.598 294.676C568.598 282.071 559.993 272.856 536.088 260.463C508.253 245.951 498.691 234.83 498.691 216.717C498.691 194.897 517.284 178.585 542.25 178.585C553.296 178.585 561.478 180.598 568.598 184.729V176.891H578.799V214.598H568.598V198.922C557.335 191.402 551.811 189.178 542.994 189.178C527.907 189.178 518.239 198.18 518.239 211.845C518.239 223.072 524.614 229.534 552.234 245.422C579.861 261.31 587.828 270.949 587.828 289.062C587.828 311.941 568.807 329.63 543.843 329.63C529.926 329.63 520.896 326.77 509.847 319.673V328.782H509.74Z" fill="#334155"/>
<path d="M686.415 326.875H633.831V318.719H650.403V259.827L604.614 189.389H591.756V181.233H646.365V189.389H626.287L664.318 247.222L699.482 189.389H679.405V181.233H723.598V189.389H712.126L669.633 258.45V318.613H686.415V326.875Z" fill="#334155"/>
<path d="M734.543 326.875V318.719H751.115V189.389H734.543V181.233H799.776C839.612 181.233 872.014 213.856 872.014 253.895C872.014 294.675 840.146 326.875 799.457 326.875H734.543ZM770.56 315.859H797.119C827.397 315.859 850.451 289.167 850.132 254.107C850.132 220 826.654 192.46 797.543 192.46H770.56V315.859Z" fill="#334155"/>
<path d="M999.609 329.312H992.814L907.926 212.798V318.719H924.713V326.875H880.091V318.719H896.878V197.756L890.93 189.389H875.629V181.233H907.607L988.56 292.027V189.389H971.773V181.233H1016.19V189.389H999.609V329.312Z" fill="#334155"/>
<path d="M1131.77 326.876H1031.16V318.72H1047.84V189.389H1031.27V181.233H1119.45V175.09H1129.65V210.15H1119.66V191.402H1067.28V247.964H1109.03V231.44L1119.23 231.228V274.656L1109.03 274.868V257.921H1067.28V317.025H1121.68V297.641H1131.88V326.876H1131.77Z" fill="#334155"/>
<path d="M1241.2 326.875H1188.61V318.719H1205.18V259.827L1159.39 189.389H1146.65V181.233H1201.26V189.389H1181.17L1219.21 247.222L1254.37 189.389H1234.3V181.233H1278.49V189.389H1267.02L1224.52 258.45V318.613H1241.31V326.875H1241.2Z" fill="#334155"/>
<path d="M222.043 285.99H254.658V281.011H222.043V285.99ZM222.043 299.441H254.658V294.569H222.043V299.441ZM222.043 272.537H254.658V267.559H222.043V272.537ZM198.563 281.011H165.948V285.99H198.563V281.011ZM198.563 294.569H165.948V299.441H198.563V294.569ZM198.563 267.559H165.948V272.537H198.563V267.559ZM250.408 181.233C237.128 180.597 223.636 180.173 210.356 180.173C197.076 180.173 183.584 180.597 170.304 181.233V246.904H44.1975C49.4033 278.469 62.3643 307.915 80.8504 332.489C83.2939 328.993 87.437 326.664 92.1116 326.664H170.304V395.089C183.053 398.584 196.439 400.491 210.25 400.491V401.021H210.356V400.491C224.167 400.491 237.553 398.584 250.408 394.983V326.664H328.707C333.275 326.664 337.418 328.888 339.862 332.383C358.348 307.809 371.203 278.257 376.515 246.798H250.408V181.233ZM187.196 201.676L204.194 209.725L210.25 192.036L216.624 209.725L233.41 201.569L225.336 218.517L243.078 224.555L225.336 230.91L233.516 247.646L216.412 239.595L210.356 257.179L203.982 239.49L187.196 247.646L195.27 230.592L177.528 224.555L195.376 218.199L187.196 201.676ZM127.596 310.246L110.81 302.09L104.435 319.779L98.3797 302.195L81.2752 310.246L89.562 293.51L71.7135 287.154L89.4558 281.117L81.3814 264.064L98.0611 272.22L104.435 254.531L110.491 272.114L127.596 264.064L119.415 280.799L137.157 287.154L119.415 293.192L127.596 310.246ZM154.58 308.975H147.144V303.572H154.58V308.975ZM154.58 294.463H147.144V289.061H154.58V294.463ZM154.58 279.952H147.144V274.55H154.58V279.952ZM154.58 265.547H147.144V260.144H154.58V265.547ZM158.617 308.975V256.755H191.552C192.189 256.649 192.933 256.755 193.57 256.755C201.113 256.755 206.956 262.58 206.956 269.889V313.635C204.513 310.775 200.794 308.868 196.651 308.868C196.12 308.975 168.923 308.975 158.617 308.975ZM233.516 377.082L216.412 369.032L210.356 386.722L203.982 368.926L187.196 377.082L195.27 360.029L177.528 353.992L195.27 347.636L187.09 330.9L204.194 338.95L210.25 321.367L216.624 339.056L233.41 330.9L225.336 347.954L243.078 353.992L225.336 360.347L233.516 377.082ZM293.01 264.064L310.115 272.114L316.171 254.531L322.545 272.22L339.331 264.064L331.256 281.117L348.999 287.154L331.15 293.51L339.331 310.246L322.226 302.195L316.171 319.779L309.796 302.09L293.01 310.246L301.085 293.192L283.343 287.154L301.085 280.799L293.01 264.064ZM266.026 260.038H273.462V265.44H266.026V260.038ZM266.026 274.55H273.462V279.952H266.026V274.55ZM266.026 289.061H273.462V294.463H266.026V289.061ZM266.026 303.572H273.462V308.975H266.026V303.572ZM262.094 256.755V308.975C251.789 308.975 224.486 308.975 223.955 308.975C219.812 308.975 216.199 310.775 213.65 313.741V269.995C213.65 262.58 219.492 256.861 227.036 256.861C227.673 256.861 228.417 256.755 229.054 256.861H262.094V256.755ZM327.113 34.0009C294.604 27.116 251.683 20.337 210.356 20.337C148.312 20.337 82.7624 35.6957 53.9715 43.428C48.2346 44.9109 43.985 46.182 41.4353 46.9235V187.588C60.1332 184.622 137.157 172.971 210.25 172.864C283.343 172.864 360.366 184.516 379.065 187.588V46.9235C376.515 46.182 372.265 45.0168 366.528 43.428C357.073 40.8859 343.368 37.4964 327.113 34.0009ZM150.756 48.83C153.305 48.1945 147.781 44.0636 151.393 44.2754C153.73 44.3813 161.486 44.3813 167.329 47.2412C168.391 47.6649 169.135 45.6524 171.366 44.1695C171.579 44.0636 172.11 43.8517 172.429 44.1695C174.766 45.5465 175.509 47.6649 176.678 47.1353C182.521 44.3813 190.17 44.3813 192.401 44.1695C196.12 43.9577 190.489 48.1945 193.039 48.7241C206.213 51.9018 215.987 63.0234 215.987 76.2641C215.987 80.0773 215.031 83.6786 213.756 87.0677C213.012 88.8684 211.206 83.7843 210.462 86.7499C209.187 92.152 207.806 96.1774 204.938 101.579C202.175 106.664 197.714 96.0713 196.332 99.0369C193.783 104.333 187.833 106.24 183.69 106.875C183.159 106.875 182.734 106.875 183.371 106.346C183.584 106.134 184.646 105.18 184.859 103.274C184.859 103.062 184.752 102.744 185.177 102.533C188.365 101.05 190.702 98.0837 191.339 94.5885C192.295 91.305 193.676 86.6442 195.27 83.7842C198.882 77.429 194.526 69.8027 195.589 68.1076C198.032 66.5192 199.626 63.7648 199.626 60.5874C199.626 55.6088 195.589 51.584 190.596 51.584C187.94 51.584 185.496 52.7492 183.902 54.6558L183.69 54.8676C182.84 55.715 182.096 56.6681 181.353 57.6218C180.503 58.6806 180.715 60.5874 182.096 60.9053C188.258 62.4937 192.189 76.2641 189.746 80.7125C188.683 82.725 185.283 90.1395 185.283 92.2581C185.283 95.012 183.053 97.2362 180.29 97.2362C178.166 97.2362 176.359 95.9651 175.616 93.9527L175.722 93.7409C177.422 92.6816 181.14 90.4574 181.14 88.127L180.396 80.6069C183.478 80.289 184.859 78.5939 185.283 75.7345C185.602 75.5222 185.815 75.3104 186.027 75.0986C187.09 74.1455 187.727 71.6034 185.496 72.0269C182.415 72.5566 178.909 72.4504 175.403 73.4041C174.978 73.5097 174.66 73.9337 174.554 74.3572C174.447 74.993 176.359 84.1021 176.89 86.1146C176.89 86.3263 176.784 86.4325 176.678 86.4325C175.297 86.3264 172.853 86.2208 172.216 86.2208C171.579 86.2208 169.241 86.3264 167.754 86.4325C167.648 86.4325 167.435 86.2207 167.435 86.1146C167.86 83.996 169.879 74.8869 169.879 74.8869C169.879 74.4634 169.879 74.1455 169.667 73.8276C169.029 72.98 160.105 72.2387 158.936 72.0269C158.405 71.9213 157.874 72.133 157.555 72.5565C156.705 73.8276 158.192 75.2048 159.255 75.7345C159.68 78.4883 161.061 80.1829 164.036 80.5008L164.142 80.6069C164.036 81.136 163.292 88.127 163.292 88.127C163.292 90.5635 167.01 92.576 168.817 93.6353C168.923 93.7409 169.029 93.9527 169.029 94.0588C168.179 95.7534 166.373 97.0244 164.46 97.0244C161.698 97.0244 159.467 94.8002 159.467 92.0464C159.467 90.2457 156.174 82.5132 154.899 80.3946C152.243 75.84 156.174 62.282 162.548 60.693C163.93 60.3757 164.673 58.3632 163.611 57.3039C160.955 54.6558 157.874 51.3721 153.837 51.3721C148.843 51.3721 144.912 55.3971 144.912 60.3757C144.912 66.0951 149.268 66.9427 148.949 68.5317C147.144 73.8276 147.144 79.5476 149.481 83.5725C151.074 86.3263 152.349 90.8809 153.412 94.0588C154.049 97.3423 155.961 100.202 158.83 101.791C160.211 102.638 159.573 103.698 160.105 104.863C160.424 105.393 160.848 105.816 161.167 106.134C161.805 106.558 161.274 106.664 160.848 106.664C156.705 106.134 150.225 104.333 147.568 98.7195C146.187 95.7533 141.619 106.346 138.963 101.262C136.095 95.8595 134.82 91.8346 133.439 86.4325C132.695 83.4664 130.889 88.5506 130.145 86.7499C128.87 83.3608 127.914 79.865 127.914 75.9462C127.914 63.0234 137.688 51.9018 150.756 48.83ZM188.258 58.0454C188.152 57.9392 188.152 57.4095 188.365 57.3039C189.002 56.7743 189.852 56.5625 190.702 56.5625C192.933 56.5625 194.739 58.3632 194.739 60.5874C194.739 61.8585 194.208 62.9178 193.252 63.6592C193.039 63.8709 192.614 63.6592 192.508 63.4475C191.339 61.3289 189.958 59.5282 188.258 58.0454ZM179.228 103.168C178.272 105.71 174.66 104.863 172.747 106.451C172.535 106.664 172.003 106.664 171.791 106.451C169.879 104.863 166.373 105.604 165.204 102.85C165.098 102.638 165.098 102.215 165.629 102.109C168.179 101.791 170.41 100.626 172.003 98.8251C172.11 98.6134 172.535 98.5072 172.96 98.9312C174.447 100.52 176.466 101.791 178.803 102.109C179.015 102.215 179.441 102.426 179.228 103.168ZM152.137 63.5531C152.031 63.6592 151.606 63.871 151.287 63.5531C150.437 62.8117 149.799 61.6467 149.799 60.3757C149.799 58.1509 151.606 56.3502 153.837 56.3502C154.899 56.3502 155.855 56.7743 156.599 57.4095C156.918 57.6213 156.705 58.151 156.599 58.2571C154.899 59.9517 153.412 61.6468 152.137 63.5531ZM116.653 115.137C113.891 115.137 112.828 115.985 110.81 117.256C109.535 118.103 109.216 115.667 110.703 110.689C111.872 106.769 104.117 104.651 102.31 106.451C99.6545 108.464 93.0679 112.489 86.4808 105.604C85.2059 104.227 89.4558 104.651 89.6681 103.486C90.0929 101.685 91.6863 100.626 92.324 99.9905C92.7488 99.4609 92.7488 98.6134 92.0055 98.2955C89.9867 97.2362 87.2246 94.9064 87.968 90.6692C88.0742 90.0339 84.5688 89.8216 85.7374 88.7629C91.8993 83.149 98.5921 86.6443 101.248 88.445C101.673 88.6567 102.629 88.6567 102.736 87.8091C102.948 86.0084 101.992 84.7374 105.71 81.7718C106.454 81.136 103.585 78.7 105.604 78.8062C118.246 81.9835 112.51 95.1181 115.166 97.4484C120.053 101.791 131.739 105.18 142.681 107.511C143.638 107.722 147.037 108.888 147.781 109.311C156.705 113.866 162.123 113.442 166.904 111.536C168.391 110.9 168.391 112.913 167.86 113.336C150.225 130.178 136.732 125.836 132.058 122.869C128.764 120.751 121.965 120.645 118.884 124.988C118.352 125.518 117.397 125.836 116.971 124.458C116.015 121.28 117.078 119.162 118.034 116.832C118.672 115.455 117.184 115.137 116.653 115.137ZM284.936 130.707C282.599 132.72 278.349 135.05 271.656 134.733C268.788 134.627 267.407 135.474 266.769 136.216C266.344 136.745 266.132 137.487 266.026 137.593C265.6 138.97 266.132 140.452 266.875 141.618C267.619 142.677 267.301 143.312 266.238 143.524C265.176 143.842 263.688 143.842 260.82 142.465C259.545 141.83 259.226 142.677 259.014 143.207C258.483 144.583 259.439 146.279 261.351 147.55C262.307 148.397 262.095 149.244 260.607 149.774C258.057 150.621 255.826 149.456 252.108 147.443C249.984 146.279 248.283 146.066 246.796 147.761C245.946 148.714 246.052 149.562 246.478 150.092C247.965 151.468 248.815 154.328 245.203 158.883C244.034 160.366 242.759 156.235 241.591 156.764C236.704 159.095 232.666 156.023 231.073 154.01C230.754 153.587 230.01 153.481 229.16 154.01C226.717 155.706 221.405 158.353 219.386 153.587C219.068 152.846 216.199 154.646 216.199 153.269C216.306 145.431 223.105 143.948 226.08 143.736C226.93 143.63 227.142 143.207 226.717 142.465C225.548 140.77 224.167 138.758 224.911 136.428C225.442 134.733 220.98 134.309 222.786 133.356C231.817 128.907 236.81 137.487 238.403 138.334C241.059 139.817 252.746 136.004 254.233 129.649C254.552 128.378 251.471 127.848 248.496 127.107C247.965 127.001 247.646 126.259 248.602 125.518C255.72 120.221 261.457 113.336 274.312 112.065C275.906 111.853 276.543 113.231 276.543 113.866C276.756 115.878 277.287 117.785 278.137 119.586C280.049 123.505 282.28 125.941 284.511 127.742C285.786 129.013 285.574 130.178 284.936 130.707ZM338.906 126.683C340.075 127.318 340.075 127.954 339.225 128.695C338.375 129.436 336.993 130.178 333.913 130.178C332.531 130.178 332.531 131.025 332.637 131.661C332.85 133.144 334.444 134.203 336.675 134.521C337.844 134.839 338.162 135.686 336.993 136.745C335.081 138.652 332.637 138.652 328.388 138.546C324.351 138.44 321.164 143.207 323.501 145.219C325.095 146.596 328.282 149.562 325.52 157.824C324.67 160.26 323.076 155.599 321.801 156.341C318.508 158.353 315.533 155.811 314.046 154.01C313.409 153.269 312.771 153.269 312.346 154.01C310.965 156.341 307.459 160.366 300.447 156.553C298.96 155.706 295.772 158.565 295.56 157.612C294.391 152.104 297.26 148.926 299.597 147.232C299.81 147.02 300.766 145.749 299.172 145.854C296.835 145.749 293.86 145.008 293.541 142.041C293.541 141.406 290.461 141.618 290.673 140.77C291.417 136.745 300.235 133.779 306.397 137.91C311.602 141.3 318.083 129.649 313.409 124.247C310.009 120.327 290.248 131.343 283.555 117.044C280.899 111.324 284.193 106.451 281.537 106.028C278.774 105.604 266.344 102.956 252.533 113.972C229.267 132.614 203.982 122.446 198.032 118.315C197.076 117.997 196.226 118.738 196.545 119.692C197.501 122.128 197.076 124.352 195.907 126.047C193.464 129.754 185.071 133.462 183.584 133.885C173.81 136.745 174.766 144.266 175.828 147.55C176.147 148.608 175.722 149.138 174.66 149.032C171.685 148.503 165.629 146.596 163.186 140.77C162.973 140.135 162.229 140.029 161.38 140.665C157.768 143.207 159.043 147.02 159.892 148.714C160.211 149.35 159.999 149.986 159.149 150.092C155.855 150.515 153.412 146.596 150.543 146.914C148.631 147.126 146.506 148.503 145.231 149.35C144.7 149.668 144.594 150.621 144.912 151.786C148.525 162.59 142.575 163.014 142.15 162.802C141.726 162.59 141.938 160.79 140.238 160.472C134.288 160.79 132.695 156.977 132.376 154.117C132.27 153.163 131.845 152.846 131.314 153.269C129.083 154.858 123.559 157.824 120.053 153.375C119.521 152.739 117.928 153.375 116.971 153.799C116.228 154.117 116.228 152.951 116.228 152.528C116.653 146.384 120.796 143.524 123.133 142.465C123.983 142.041 124.09 141.618 123.346 141.088C121.434 139.711 118.14 136.745 119.203 133.462C119.415 132.826 116.44 131.661 117.184 131.132C123.983 126.259 132.695 134.309 133.757 135.263C134.926 136.216 141.088 136.427 156.811 127.53C166.798 121.916 172.003 117.256 174.872 113.76C175.191 113.336 175.935 112.595 176.997 112.595C183.371 112.383 189.639 111.43 194.526 107.193C195.376 106.346 196.12 106.875 196.545 107.087C205.575 113.336 210.144 99.5665 212.056 93.2113C212.269 91.9402 212.587 90.8809 213.968 90.7753C247.115 92.3643 309.903 92.1519 309.903 92.1519C309.903 92.1519 318.189 92.7878 317.764 87.7036C317.127 79.4415 282.812 79.6532 257.314 83.149C248.071 84.4201 234.579 85.1614 226.611 82.0897C223.317 80.8186 220.661 78.8062 219.174 76.1579C217.58 72.7683 218.005 70.7558 218.324 68.6372C218.749 67.1544 219.492 65.4599 220.555 63.7648C227.142 53.7024 242.228 52.8551 247.009 52.8551C247.859 52.8551 248.496 52.4314 248.602 51.7959C249.027 49.4656 250.833 44.0636 257.207 43.7458C259.014 43.6399 260.82 43.0043 261.988 42.4747C262.732 42.157 263.263 42.3688 263.051 43.0043C262.838 43.8517 262.52 44.9109 261.563 45.7583C257.101 49.5715 257.739 51.3722 258.27 51.7959C258.589 52.0077 259.014 51.9018 259.332 51.584C272.825 39.8267 280.687 47.6649 283.13 50.207C283.555 50.6307 283.661 51.3721 282.812 51.584C273.675 53.5965 270.063 61.7524 251.365 60.4813C249.134 60.3757 233.729 59.5282 228.842 66.5192C226.08 70.5441 227.992 74.2511 236.278 76.1579C242.546 77.5351 257.207 75.4165 264.113 74.8869C270.913 74.3572 300.341 70.6502 315.852 75.0986C322.332 77.0055 331.894 82.1953 329.982 92.0464C328.707 98.2955 322.757 100.732 322.757 100.732C322.757 100.732 305.759 112.595 336.25 112.807C345.705 112.807 336.356 120.645 335.931 122.869C335.931 124.352 337.418 125.836 338.906 126.683ZM283.024 60.9053C282.068 61.1171 280.793 61.435 279.306 62.3881C276.543 64.1888 265.494 68.7434 262.094 63.3413C262.094 63.3413 269.85 63.1295 274.843 58.6806C274.843 58.6806 280.261 56.8799 283.449 59.7399C283.874 59.9517 283.874 60.693 283.024 60.9053ZM210.356 0C106.666 0 3.50781 27.5397 3.50781 27.5397V165.026C3.50781 288.955 92.5364 417.756 210.356 440C332.531 416.167 417.31 288.85 417.31 165.026V27.5397C417.204 27.5397 330.725 0 210.356 0ZM386.501 215.234C386.501 316.177 309.584 407.694 210.356 407.8H210.25C111.022 407.694 34.1048 316.071 34.1048 215.234C34.1048 96.707 34.1048 41.5214 34.1048 41.5214L36.6545 40.78C36.867 40.78 126.002 13.1343 210.25 13.1343C294.498 13.1343 383.845 40.78 383.845 40.78L386.395 41.5214C386.501 41.5214 386.501 96.707 386.501 215.234Z" fill="#334155"/>
</g>
<defs>
<clipPath id="clip0_1385_302">
<rect width="1282" height="440" fill="white"/>
</clipPath>
</defs>
</svg>
